<svg width="69" height="69" viewBox="0 0 69 69" fill="none" xmlns="http://www.w3.org/2000/svg">
<g clip-path="url(#clip0_4378_4585)">
<path d="M26.0147 16.3882H33.1208C33.1208 15.3116 33.1414 14.2497 33.0965 13.1902C33.0904 13.0397 32.7785 12.871 32.5795 12.763C30.8087 11.8005 29.9628 9.81742 30.5247 7.91562C31.0806 6.03567 32.9132 4.80866 34.9012 4.98586C36.7157 5.14727 38.2073 6.51142 38.575 8.34283C38.927 10.1002 38.0519 11.9292 36.4038 12.7533C35.9863 12.962 35.8661 13.2023 35.8794 13.6368C35.9086 14.541 35.8879 15.4476 35.8879 16.3736H42.9867C42.9867 15.8602 42.92 15.3687 43.0062 14.9051C43.0863 14.473 43.2355 13.99 43.5171 13.672C44.2939 12.7957 45.1592 11.9984 45.9821 11.1622C46.5513 10.5832 46.3778 9.60382 45.6581 9.27249C43.545 8.29914 42.4102 6.04902 42.9066 3.81589C43.4103 1.55 45.3995 -0.018048 47.7444 0.000156866C49.9969 0.0183617 51.985 1.65437 52.4292 3.85352C52.8928 6.1449 51.7313 8.39502 49.5734 9.30405C49.1729 9.47274 48.9787 9.6645 49.0515 10.0929C49.2869 11.4898 48.7699 12.5579 47.6764 13.422C47.1715 13.8213 46.788 14.3698 46.2867 14.774C45.7479 15.2085 45.6775 15.7206 45.8243 16.4234C47.7711 16.3117 49.6498 16.4573 51.1366 17.9902C52.6136 19.5121 52.6719 21.3872 52.5627 23.3351C53.1756 23.4808 53.6683 23.5075 54.1271 22.9953C54.814 22.2283 55.5896 21.5401 56.2971 20.7901C56.7462 20.3143 57.256 20.0643 57.9113 20.1286C58.0121 20.1384 58.1152 20.1177 58.2148 20.1323C59.0473 20.25 59.5328 20.0231 59.954 19.1517C60.9249 17.1418 63.2794 16.2243 65.4131 16.8069C67.6038 17.4052 69.0662 19.4029 68.9971 21.7028C68.9315 23.8813 67.3465 25.7904 65.2152 26.2576C62.9906 26.7443 60.8145 25.692 59.7889 23.6555C59.6493 23.3776 59.4418 22.982 59.2063 22.9334C58.6711 22.823 58.1165 22.8205 57.6625 23.3388C57.012 24.084 56.2559 24.7357 55.5835 25.4615C55.0762 26.0088 54.4973 26.2685 53.7521 26.2006C53.394 26.1678 53.0311 26.1945 52.627 26.1945V33.275C53.7011 33.275 54.7655 33.292 55.8275 33.2531C55.9646 33.2483 56.1224 32.9691 56.2158 32.7883C57.0011 31.2761 58.5922 30.3913 60.2671 30.5503C61.9857 30.7142 63.402 31.8817 63.8778 33.5274C64.4628 35.5542 63.4093 37.7194 61.4528 38.5107C59.4806 39.3081 57.2511 38.5143 56.2668 36.6101C56.0447 36.1817 55.8153 36.0312 55.348 36.0506C54.4621 36.0882 53.5724 36.0615 52.6331 36.0615V43.1456C53.0202 43.1456 53.4159 43.1663 53.8079 43.1408C54.5033 43.0947 55.0556 43.3277 55.5362 43.8386C56.2704 44.619 57.069 45.3387 57.7936 46.1276C58.1274 46.4917 58.5133 46.391 58.8993 46.4577C59.4515 46.5548 59.5644 46.2004 59.7391 45.8181C60.7161 43.6784 62.9542 42.5813 65.2553 43.0922C67.4351 43.5765 69.0153 45.5899 68.9995 47.8643C68.9825 50.214 67.3562 52.1546 65.0114 52.6194C62.8267 53.0539 60.5924 51.8573 59.693 49.7285C59.5231 49.3256 59.3131 49.1387 58.8956 49.2091C57.4708 49.4494 56.3979 48.9044 55.5301 47.7903C55.1478 47.3 54.6174 46.925 54.2193 46.4444C53.786 45.9201 53.2812 45.8072 52.5639 45.9917C52.7083 47.8716 52.4923 49.6739 51.031 51.1096C49.5637 52.5527 47.7371 52.6765 45.8243 52.5588C45.6884 53.2263 45.7248 53.7324 46.2479 54.1887C46.947 54.7992 47.5526 55.5164 48.242 56.1403C48.8452 56.6864 49.1559 57.3163 49.0442 58.1258C48.9228 59.0033 49.1571 59.5264 50.0601 59.9718C52.0808 60.9682 52.9607 63.3348 52.3296 65.5097C51.707 67.6554 49.6632 69.1045 47.4203 68.9892C45.1908 68.8751 43.2974 67.2525 42.886 65.1031C42.4539 62.8457 43.5936 60.6405 45.6702 59.7145C46.3596 59.4074 46.544 58.4159 46.0039 57.8661C45.2806 57.1306 44.5742 56.3757 43.812 55.6839C43.1931 55.122 42.8848 54.4873 42.9795 53.6486C43.0159 53.3306 42.9855 53.0042 42.9855 52.6279H35.8916C35.8916 53.685 35.871 54.7324 35.9146 55.7774C35.9207 55.9339 36.2108 56.1196 36.405 56.2228C37.9318 57.0299 38.7947 58.6258 38.6163 60.3492C38.4452 62.0046 37.2412 63.4198 35.6173 63.8761C33.5977 64.4429 31.4665 63.4088 30.6776 61.4803C29.8657 59.4948 30.6376 57.2702 32.5321 56.2822C32.9933 56.0419 33.1681 55.7871 33.1378 55.2652C33.0868 54.4023 33.1244 53.5333 33.1244 52.6219H26.0135C26.0135 53.0017 25.988 53.3974 26.0195 53.7894C26.0766 54.5103 25.8314 55.071 25.2986 55.5662C24.5134 56.2956 23.7742 57.0736 23.0181 57.8333C22.4453 58.4098 22.6164 59.3965 23.3434 59.7205C25.4103 60.6417 26.5633 62.8942 26.1093 65.1189C25.6481 67.3751 23.6419 68.9989 21.3177 68.9953C19.0263 68.9917 17.0614 67.3957 16.5723 65.1395C16.0953 62.9404 17.2422 60.6393 19.3188 59.7436C19.8043 59.5336 20.0397 59.3018 19.9511 58.769C19.7363 57.4898 20.2024 56.5043 21.2109 55.7033C21.762 55.2664 22.1904 54.6766 22.7305 54.2227C23.2584 53.7797 23.3288 53.2651 23.1662 52.5624C21.2983 52.6777 19.4645 52.5672 17.9959 51.1351C16.5286 49.7042 16.2725 47.9104 16.4448 45.9917C15.7603 45.8278 15.2627 45.8958 14.8052 46.4116C14.1352 47.1665 13.3718 47.8388 12.6764 48.5719C12.2419 49.0307 11.7491 49.2734 11.1156 49.2103C11.0355 49.2018 10.9517 49.22 10.8728 49.2078C9.98928 49.0658 9.47711 49.3329 9.02441 50.2249C7.99157 52.2626 5.62611 53.1449 3.48882 52.5017C1.24837 51.8269 -0.138859 49.794 0.0152784 47.4128C0.154851 45.2501 1.8625 43.3993 4.06411 43.0231C6.25237 42.648 8.42485 43.8556 9.32783 45.9455C9.58634 46.5427 10.6095 46.6871 11.1301 46.181C11.8693 45.4613 12.6302 44.7586 13.3111 43.9867C13.8888 43.3325 14.5551 43.0631 15.4035 43.1408C15.7178 43.1699 16.037 43.1456 16.3866 43.1456V36.0652C15.3222 36.0652 14.2602 36.0445 13.1995 36.0882C13.0477 36.0943 12.8754 36.3977 12.7698 36.5931C11.9736 38.0653 10.317 38.9816 8.75011 38.8007C6.93567 38.5908 5.55086 37.4172 5.10301 35.7096C4.57871 33.7107 5.63339 31.5953 7.53401 30.8367C9.52566 30.043 11.7673 30.827 12.7249 32.7143C12.9591 33.1767 13.2201 33.3065 13.6971 33.2895C14.5794 33.2568 15.4642 33.2798 16.3829 33.2798V26.1896C15.929 26.1896 15.5091 26.1727 15.0916 26.1933C14.4629 26.2261 13.9604 26.0137 13.5235 25.5549C12.7698 24.7648 11.9906 23.999 11.2127 23.2332C10.5585 22.5887 9.63489 22.7538 9.24408 23.5742C8.24523 25.6726 5.99143 26.7661 3.74855 26.2418C1.51053 25.7236 -0.0381234 23.7284 0.000714271 21.42C0.0407656 19.1201 1.64282 17.2049 3.92211 16.7341C6.12736 16.2777 8.36781 17.438 9.27564 19.5534C9.46497 19.9939 9.67736 20.2112 10.1604 20.1311C11.5076 19.9078 12.5453 20.3908 13.3791 21.4637C13.7857 21.9868 14.3476 22.386 14.7748 22.8958C15.2117 23.4177 15.7166 23.5269 16.4193 23.3533C16.4193 22.8315 16.4169 22.2926 16.4193 21.7549C16.4315 18.631 18.6562 16.4197 21.7911 16.4112C22.2511 16.4112 22.711 16.4112 23.1662 16.4112C23.3337 15.734 23.2475 15.2364 22.7268 14.7861C22.0557 14.206 21.4877 13.5057 20.8214 12.9183C20.1587 12.3345 19.8261 11.6573 19.9511 10.7799C20.0713 9.94 19.8346 9.45818 18.9681 9.04675C16.9788 8.10253 16.0601 5.7359 16.6451 3.58166C17.241 1.38494 19.2254 -0.0665942 21.5386 0.00258418C23.7318 0.0681216 25.6421 1.67864 26.1021 3.85109C26.5693 6.05023 25.4588 8.27365 23.4247 9.24215C23.1735 9.3623 22.7814 9.54313 22.7645 9.72518C22.7147 10.2349 22.5654 10.7847 23.0739 11.2423C23.8398 11.9304 24.5158 12.7193 25.2768 13.4147C25.8326 13.922 26.0863 14.4961 26.0207 15.2388C25.9892 15.5969 26.0159 15.9597 26.0159 16.3882H26.0147ZM49.8064 34.5432C49.8064 30.3367 49.8088 26.1314 49.8064 21.9249C49.8052 20.1189 48.8792 19.1856 47.089 19.1844C38.6964 19.182 30.3038 19.182 21.9124 19.1844C20.1247 19.1844 19.1962 20.1262 19.1962 21.9261C19.195 30.2979 19.1938 38.6697 19.1938 47.0415C19.1938 48.8777 20.1126 49.8074 21.944 49.8074C30.316 49.8098 38.6879 49.8086 47.0598 49.805C48.8998 49.805 49.8052 48.8874 49.8064 47.039C49.8076 42.8738 49.8064 38.7073 49.8064 34.542V34.5432ZM21.3481 62.0374C20.2169 62.0301 19.2557 62.9743 19.2375 64.1103C19.2193 65.2609 20.189 66.2342 21.3566 66.2354C22.4756 66.2379 23.4356 65.2682 23.438 64.1322C23.4405 63.0083 22.478 62.0435 21.3469 62.0362L21.3481 62.0374ZM47.6679 66.2403C48.7906 66.2403 49.7481 65.2851 49.7639 64.1467C49.7785 63.0241 48.816 62.0459 47.6873 62.0386C46.5246 62.0301 45.5512 63.0023 45.5634 64.1589C45.5743 65.2912 46.5331 66.2391 47.6691 66.2403H47.6679ZM21.3238 6.95441C22.4987 6.95441 23.4538 5.99683 23.438 4.83172C23.4235 3.69817 22.4683 2.77093 21.3202 2.77579C20.1769 2.78064 19.2351 3.72608 19.2363 4.86449C19.2363 6.00411 20.1842 6.95198 21.3238 6.95319V6.95441ZM64.1557 19.4199C63.0039 19.415 62.0585 20.3362 62.0439 21.477C62.0293 22.6555 62.9687 23.6033 64.1496 23.5997C65.2978 23.5973 66.2274 22.664 66.2274 21.5146C66.2274 20.3592 65.3038 19.4247 64.1557 19.4199ZM4.85907 49.9239C6.00478 49.9312 6.94416 49.0052 6.9563 47.8558C6.96844 46.7077 6.04483 45.7623 4.89912 45.7489C3.71578 45.7344 2.76304 46.6725 2.77033 47.8461C2.77761 48.9991 3.7 49.9178 4.85907 49.9251V49.9239ZM64.1618 49.9239C65.3087 49.913 66.2335 48.9736 66.2287 47.8243C66.2238 46.6737 65.2966 45.7501 64.1424 45.7465C62.9712 45.7429 62.0196 46.7077 62.0415 47.874C62.0633 49.0173 63.0112 49.9336 64.1618 49.9227V49.9239ZM4.88819 23.5997C6.03633 23.59 6.9563 22.6567 6.9563 21.5025C6.9563 20.3629 6.01327 19.4223 4.86999 19.4211C3.69879 19.4211 2.75091 20.3799 2.7679 21.5511C2.78368 22.6907 3.73641 23.6106 4.88819 23.5997ZM47.663 2.77458C46.5198 2.77215 45.5755 3.70424 45.5634 4.84871C45.5512 5.98348 46.4906 6.93984 47.6315 6.95441C48.7978 6.97018 49.7688 6.00897 49.7603 4.8475C49.7518 3.70545 48.8124 2.777 47.6618 2.77458H47.663ZM7.74519 34.6233C7.70999 35.3734 8.3314 36.036 9.08024 36.0482C9.84242 36.0603 10.2344 35.6003 10.1895 34.7532C10.1835 34.6343 10.1774 34.5044 10.215 34.3952C10.3777 33.9206 10.0997 33.673 9.74776 33.4764C8.85935 32.9813 7.79252 33.5966 7.74519 34.6233ZM35.8637 59.9681C35.8564 59.1331 35.4122 58.7423 34.6476 58.8103C34.5286 58.8212 34.3975 58.8334 34.2871 58.7969C33.6499 58.5882 33.3829 58.996 33.2106 59.4742C33.0152 60.0167 33.156 60.524 33.5917 60.9051C34.0201 61.2813 34.5262 61.3808 35.0578 61.1357C35.5833 60.8929 35.843 60.4621 35.8637 59.9669V59.9681ZM58.6857 34.7022C58.7937 35.0336 58.8167 35.4377 59.0267 35.6804C59.4418 36.161 60.1409 36.1586 60.6737 35.786C61.204 35.4146 61.4019 34.7216 61.1482 34.1282C60.8946 33.5371 60.2355 33.1973 59.6178 33.3417C58.9624 33.4934 58.8107 33.7459 58.6857 34.7034V34.7022ZM35.8625 9.122C35.8612 8.56736 35.6052 8.15957 35.1282 7.89499C34.6306 7.61949 33.9849 7.71173 33.565 8.11709C33.128 8.53823 33.0225 9.05039 33.2373 9.60867C33.4472 10.1536 33.8308 10.3903 34.423 10.1876C34.4934 10.1633 34.5832 10.1839 34.6621 10.1924C35.3988 10.2725 35.8552 9.8684 35.8637 9.122H35.8625Z" fill="#3FD6C5"/>
<path d="M34.0023 36.9934H27.832C27.832 37.9267 27.8429 38.8285 27.8283 39.7302C27.8174 40.4172 27.4788 40.9063 26.9229 41.1041C26.0394 41.4172 25.083 40.808 25.0709 39.8443C25.043 37.6403 24.9738 35.4303 25.1036 33.2335C25.2942 30.0258 28.0092 27.6883 31.1975 27.8218C34.3179 27.9517 36.7634 30.5392 36.7732 33.7311C36.7792 35.6924 36.7744 37.6549 36.7732 39.6162C36.7732 40.5567 36.2112 41.1818 35.3798 41.1757C34.5667 41.1696 34.0193 40.5749 34.006 39.655C33.9938 38.7884 34.0035 37.9207 34.0035 36.9934H34.0023ZM33.9477 34.1681C34.1164 32.7918 33.5387 31.6218 32.4197 30.9846C31.3626 30.3814 30.0118 30.4785 29.0517 31.2249C28.1123 31.9556 27.6584 33.1401 27.9412 34.1681H33.9477Z" fill="#3FD6C5"/>
<path d="M41.166 34.4999C41.166 32.8226 41.1636 31.1453 41.166 29.468C41.1684 28.4583 41.6988 27.826 42.5374 27.8175C43.3809 27.809 43.9453 28.4401 43.9465 29.4377C43.9538 32.8323 43.955 36.2281 43.9465 39.6227C43.9441 40.5742 43.3737 41.1823 42.535 41.175C41.6939 41.1677 41.1696 40.5706 41.1672 39.5924C41.1611 37.8945 41.166 36.1978 41.1648 34.4999H41.166Z" fill="#3FD6C5"/>
</g>
<defs>
<clipPath id="clip0_4378_4585">
<rect width="69" height="69" fill="white"/>
</clipPath>
</defs>
</svg>
