<svg width="122" height="21" viewBox="0 0 122 21" fill="none" xmlns="http://www.w3.org/2000/svg">
<g clip-path="url(#clip0_4378_4655)">
<path d="M121.494 2.07996C121.516 1.94938 121.484 1.81576 121.407 1.70836C121.33 1.60097 121.213 1.52855 121.082 1.50696L116.64 0.77996C116.576 0.769389 116.509 0.771685 116.445 0.786719C116.382 0.801753 116.321 0.82923 116.268 0.867581C116.215 0.905931 116.169 0.954405 116.135 1.01023C116.1 1.06606 116.077 1.12815 116.066 1.19296C116.056 1.25777 116.058 1.32402 116.073 1.38794C116.088 1.45186 116.116 1.51219 116.154 1.5655C116.192 1.6188 116.241 1.66402 116.297 1.69859C116.353 1.73316 116.415 1.75639 116.479 1.76696L120.427 2.41196L119.782 6.35996C119.763 6.48986 119.796 6.62204 119.874 6.72795C119.951 6.83387 120.068 6.90501 120.197 6.92602C120.327 6.94702 120.459 6.91622 120.567 6.84024C120.674 6.76427 120.746 6.64923 120.769 6.51996L121.494 2.07996ZM0.730469 2.41996C1.00047 2.59396 1.27647 2.76996 1.55747 2.94496L2.08747 2.09696C1.81469 1.92605 1.54301 1.75338 1.27247 1.57896L0.730469 2.41996ZM3.27047 3.98696C3.83347 4.31996 4.41347 4.65396 5.01047 4.98996L5.50047 4.11896C4.92351 3.79428 4.35014 3.46326 3.78047 3.12596L3.27047 3.98696ZM6.74747 5.94396C7.32347 6.25396 7.91247 6.56196 8.51447 6.86996L8.97047 5.97996C8.37347 5.67496 7.79047 5.36896 7.22047 5.06296L6.74747 5.94396ZM10.3115 7.76996C10.8975 8.05696 11.4945 8.34296 12.1015 8.62696L12.5265 7.72196C11.9235 7.43996 11.3315 7.15596 10.7515 6.87196L10.3115 7.76996ZM13.9155 9.45796C14.5185 9.72796 15.1315 9.99596 15.7535 10.263L16.1475 9.34296C15.5295 9.07896 14.9215 8.81296 14.3235 8.54496L13.9155 9.45796ZM17.5805 11.028C18.1915 11.278 18.8105 11.527 19.4385 11.772L19.8025 10.842C19.1805 10.598 18.5665 10.352 17.9605 10.103L17.5805 11.028ZM21.2985 12.484C21.9155 12.714 22.5385 12.942 23.1705 13.167L23.5055 12.225C22.8795 12.002 22.2605 11.775 21.6485 11.547L21.2985 12.484ZM25.0585 13.824C25.6815 14.034 26.3105 14.242 26.9465 14.447L27.2525 13.495C26.6225 13.292 25.9985 13.085 25.3805 12.876L25.0595 13.823L25.0585 13.824ZM28.8585 15.047C29.4875 15.239 30.1215 15.427 30.7605 15.612L31.0375 14.652C30.4071 14.4697 29.778 14.2827 29.1505 14.091L28.8585 15.047ZM32.6885 16.153C33.3235 16.326 33.9635 16.495 34.6085 16.66L34.8565 15.691C34.2165 15.528 33.5815 15.36 32.9515 15.188L32.6885 16.153ZM36.5505 17.141C37.1915 17.295 37.8375 17.444 38.4875 17.589L38.7055 16.613C38.0605 16.469 37.4195 16.321 36.7835 16.168L36.5505 17.141ZM40.4425 18.009C41.0885 18.142 41.7395 18.271 42.3945 18.396L42.5805 17.413C41.9315 17.29 41.2865 17.162 40.6445 17.029L40.4425 18.009ZM44.3605 18.753C45.0115 18.866 45.6665 18.975 46.3245 19.078L46.4795 18.09C45.8265 17.987 45.1775 17.88 44.5315 17.768L44.3605 18.753ZM48.3005 19.371C48.9555 19.463 49.6135 19.55 50.2745 19.631L50.3975 18.639C49.7415 18.558 49.0895 18.472 48.4395 18.381L48.3005 19.371ZM52.2605 19.859C52.9185 19.929 53.5785 19.993 54.2415 20.052L54.3305 19.056C53.6735 18.998 53.0185 18.934 52.3665 18.865L52.2605 19.859ZM56.2355 20.213C56.8955 20.26 57.5565 20.301 58.2215 20.338L58.2755 19.338C57.6165 19.303 56.9605 19.262 56.3065 19.215L56.2355 20.213ZM60.2205 20.428C60.8805 20.452 61.5435 20.47 62.2085 20.482L62.2275 19.482C61.5675 19.47 60.9115 19.452 60.2575 19.429L60.2205 20.428ZM64.2095 20.501C64.8705 20.501 65.5345 20.495 66.1995 20.483L66.1815 19.483C65.5215 19.495 64.8645 19.501 64.2095 19.501V20.501ZM68.1975 20.428C68.8595 20.404 69.5235 20.373 70.1875 20.336L70.1325 19.337C69.4735 19.374 68.8165 19.404 68.1605 19.429L68.1975 20.428ZM72.1815 20.205C72.8425 20.155 73.5055 20.099 74.1695 20.036L74.0755 19.041C73.4175 19.103 72.7615 19.159 72.1065 19.208L72.1815 20.205ZM76.1545 19.829C76.8145 19.753 77.4745 19.671 78.1365 19.582L78.0015 18.59C77.3455 18.678 76.6915 18.76 76.0385 18.834L76.1525 19.828L76.1545 19.829ZM80.1095 19.296C80.7665 19.194 81.4245 19.086 82.0835 18.97L81.9105 17.985C81.2585 18.099 80.6065 18.207 79.9565 18.308L80.1095 19.296ZM84.0405 18.605C84.6952 18.4761 85.3486 18.3404 86.0005 18.198L85.7875 17.221C85.1405 17.362 84.4935 17.496 83.8475 17.624L84.0405 18.605ZM87.9415 17.753C88.5898 17.5971 89.2365 17.4344 89.8815 17.265L89.6265 16.298C88.9865 16.466 88.3465 16.626 87.7075 16.78L87.9415 17.753ZM91.8045 16.738C92.4444 16.5557 93.0825 16.3667 93.7185 16.171L93.4235 15.215C92.7935 15.409 92.1615 15.596 91.5305 15.776L91.8045 16.738ZM95.6235 15.561C96.2534 15.3523 96.8811 15.137 97.5065 14.915L97.1725 13.972C96.5515 14.192 95.9295 14.406 95.3085 14.612L95.6235 15.562V15.561ZM99.3895 14.223C100.009 13.9877 100.626 13.7461 101.24 13.498L100.865 12.571C100.255 12.817 99.6455 13.056 99.0345 13.288L99.3895 14.223ZM103.086 12.729C103.695 12.468 104.303 12.199 104.911 11.923L104.497 11.013C103.899 11.285 103.297 11.5507 102.692 11.81L103.086 12.729ZM106.718 11.079C107.318 10.789 107.917 10.494 108.516 10.191L108.064 9.29896C107.472 9.59896 106.878 9.89196 106.285 10.177L106.718 11.078V11.079ZM110.278 9.27396C110.868 8.96007 111.453 8.63972 112.035 8.31296L111.546 7.43996C110.967 7.76496 110.388 8.08196 109.807 8.39196L110.278 9.27396ZM113.763 7.31996C114.333 6.98396 114.903 6.64096 115.471 6.29096L114.946 5.43996C114.384 5.78696 113.82 6.12596 113.256 6.45796L113.763 7.31996ZM117.169 5.21996C117.722 4.86296 118.273 4.49896 118.824 4.12796L118.265 3.29796C117.72 3.66596 117.174 4.02596 116.626 4.37896L117.169 5.21996ZM120.472 2.99196C120.746 2.79896 121.02 2.60396 121.294 2.40696L120.71 1.59496C120.439 1.78996 120.168 1.98296 119.897 2.17396L120.472 2.99196Z" fill="#3FD6C5"/>
</g>
<defs>
<clipPath id="clip0_4378_4655">
<rect width="122" height="21" fill="white"/>
</clipPath>
</defs>
</svg>
