<svg width="53" height="69" viewBox="0 0 53 69" fill="none" xmlns="http://www.w3.org/2000/svg">
<g clip-path="url(#clip0_4378_4577)">
<path d="M22.2407 32.2281C19.1332 32.6634 17.2803 34.5762 17.3217 37.2696C17.361 39.8527 19.2781 41.7594 22.2262 42.1007V51.8117H13.5992C13.5992 50.604 13.6365 49.4126 13.5765 48.2253C13.5599 47.8778 13.3549 47.4446 13.0899 47.2219C11.3798 45.7852 9.61801 44.4099 7.89136 42.9896C3.12549 39.0741 0.504468 34.0551 0.00552085 27.953C-0.00690106 27.8017 0.00552085 27.6485 0.00552085 27.4073H9.88094C9.88094 26.6165 9.87887 25.9094 9.88094 25.2044C9.88922 23.5858 10.9078 22.4762 12.3757 22.4864C13.8332 22.4966 14.8311 23.6104 14.8394 25.2391C14.8414 25.9237 14.8394 26.6062 14.8394 27.3726H22.2407V32.2302V32.2281Z" fill="#3FD6C5"/>
<path d="M30.9617 51.8262H24.7818V39.6219C24.403 39.6219 24.08 39.6219 23.757 39.6219C20.989 39.6219 19.8172 38.9005 19.8048 37.1921C19.7924 35.4571 20.9724 34.7255 23.7943 34.7255C24.0779 34.7255 24.3595 34.7255 24.7259 34.7255V27.3972H32.2018C32.2018 26.5594 32.1936 25.8012 32.2018 25.0451C32.2226 23.5574 33.2867 22.4722 34.7007 22.4845C36.0754 22.4967 37.1292 23.5737 37.1561 25.0124C37.1706 25.7726 37.1582 26.5328 37.1582 27.3809H44.572C44.4312 30.5709 43.6507 33.4953 42.218 36.25C40.8661 38.8454 39.036 41.0667 36.7565 42.9243C34.9844 44.3691 33.1915 45.7874 31.4379 47.2526C31.1895 47.4611 30.9949 47.8678 30.9804 48.1927C30.9265 49.3841 30.9597 50.5796 30.9597 51.8282L30.9617 51.8262Z" fill="#3FD6C5"/>
<path d="M32.9649 11.0128C32.114 11.0128 31.3459 11.0231 30.5778 11.0108C29.0851 10.9883 27.9796 9.91544 28.0003 8.5258C28.021 7.16069 29.1079 6.14095 30.5778 6.12051C31.3459 6.1103 32.114 6.12051 32.9566 6.12051C32.9566 4.57557 32.9546 3.10419 32.9566 1.63077C32.9587 0.390323 33.3603 0 34.6357 0C40.1386 0 45.6394 0 51.1423 0C52.3969 0 52.7944 0.400541 52.7944 1.65938C52.7944 6.27583 52.7965 10.8902 52.7944 15.5067C52.7944 16.743 52.3866 17.1334 51.1112 17.1374C50.0554 17.1395 48.9975 17.1374 47.8774 17.1374C47.7387 15.4658 47.0969 14.0741 45.6849 13.1116C44.716 12.4495 43.6333 12.1675 42.4594 12.2574C39.975 12.4474 38.2111 14.2989 37.8819 17.0904H32.9628V11.0169L32.9649 11.0128Z" fill="#3FD6C5"/>
<path d="M22.2242 11.4343C19.2513 11.7796 17.3362 13.7088 17.3238 16.3327C17.3114 18.9894 19.1974 20.9124 22.2822 21.3047C22.2822 21.8994 22.2822 22.5064 22.2822 23.1113C22.2822 23.7162 22.2822 24.272 22.2822 24.8912H17.3797C16.8766 21.7584 14.9512 19.9662 12.1977 20.0398C9.616 20.1092 7.70096 22.0098 7.37385 24.8749H0.148438C0.326485 15.4662 9.36342 4.8846 22.2242 5.38527V11.4322V11.4343Z" fill="#3FD6C5"/>
<path d="M22.2024 56.7607C19.0513 56.7607 15.9003 56.7689 12.7493 56.7505C12.3787 56.7484 11.8756 56.7178 11.6707 56.491C11.385 56.1742 11.1655 55.649 11.1986 55.2362C11.2462 54.6599 11.7473 54.335 12.3621 54.3207C13.1364 54.3023 13.9107 54.3146 14.6871 54.3146C20.2915 54.3146 25.8958 54.3146 31.5002 54.3146C31.7072 54.3146 31.9142 54.3064 32.1192 54.3166C32.9101 54.3554 33.4318 54.8438 33.4318 55.5366C33.4318 56.2294 32.9101 56.7444 32.1192 56.7525C30.4919 56.773 28.8646 56.7607 27.2374 56.7607C25.5584 56.7607 23.8793 56.7607 22.2003 56.7607H22.2024Z" fill="#3FD6C5"/>
<path d="M28.2896 64.1484C27.803 66.9257 25.1758 69.0162 22.2401 68.9999C19.3479 68.9856 16.7289 66.8705 16.2734 64.1484H28.2896Z" fill="#3FD6C5"/>
<path d="M22.2819 61.6571C19.9052 61.6571 17.5306 61.6612 15.1538 61.6571C14.1766 61.6571 13.6094 61.1973 13.6094 60.4351C13.6094 59.6728 14.1766 59.213 15.1538 59.213C19.9052 59.2089 24.6587 59.2089 29.41 59.213C30.3872 59.213 30.9566 59.6728 30.9566 60.433C30.9566 61.1953 30.3872 61.6551 29.4121 61.6571C27.0354 61.6612 24.6607 61.6571 22.284 61.6571H22.2819Z" fill="#3FD6C5"/>
</g>
<defs>
<clipPath id="clip0_4378_4577">
<rect width="53" height="69" fill="white"/>
</clipPath>
</defs>
</svg>
