<svg width="95" height="60" viewBox="0 0 95 60" fill="none" xmlns="http://www.w3.org/2000/svg">
<g clip-path="url(#clip0_4378_4567)">
<path d="M92.8781 59.8372C86.2909 58.5594 79.7529 57.2909 73.2164 56.0239C73.7719 54.163 74.4225 52.389 74.8245 50.5575C76.3711 43.4939 75.5149 36.7466 71.9981 30.3978C65.4049 18.4974 55.0646 13.0604 41.8919 13.7179C28.8435 14.3677 19.1369 21.1383 12.7309 32.5595C8.39775 40.2854 7.15949 48.6718 8.43764 57.4444C8.4852 57.7716 8.51743 58.1019 8.56653 58.5005C6.22812 59.0076 3.93881 59.5038 1.65411 60C-2.188 46.8404 -0.0920232 26.2635 16.0467 11.916C32.0473 -2.30749 55.4973 -3.98229 73.1903 7.88713C91.0399 19.862 97.7682 41.2282 92.8781 59.8372ZM89.3029 54.3817C90.7622 43.9746 88.8825 34.3739 83.5858 25.3687C81.3487 26.8605 79.1837 28.3043 76.9895 29.7666C80.2884 37.0676 81.0571 44.5763 79.1837 52.4107C82.5562 53.0666 85.8567 53.7102 89.3029 54.3817Z" fill="#3FD6C5"/>
<path d="M31.2617 52.5408C31.2679 49.3803 33.2058 46.7239 36.2439 45.75C45.418 42.8067 54.5952 39.8711 63.7723 36.934C63.9426 36.8797 64.116 36.7836 64.2848 36.7882C64.4613 36.7929 64.6853 36.8534 64.7927 36.9743C64.8571 37.0472 64.7743 37.3062 64.6945 37.4442C64.607 37.5946 64.4475 37.7016 64.3186 37.8272C57.5258 44.3652 50.73 50.8985 43.9419 57.4411C41.9764 59.3361 39.7346 60.3348 36.9727 59.7316C33.574 58.9888 31.2571 56.0687 31.2648 52.5423L31.2617 52.5408Z" fill="#3FD6C5"/>
</g>
<defs>
<clipPath id="clip0_4378_4567">
<rect width="94.4262" height="60" fill="white"/>
</clipPath>
</defs>
</svg>
