<svg width="158" height="148" viewBox="0 0 158 148" fill="none" xmlns="http://www.w3.org/2000/svg">
<g clip-path="url(#clip0_4378_4635)">
<path d="M89.4706 84.4889C89.4706 88.8317 89.4773 92.8863 89.4706 96.9375C89.4672 99.4699 88.5607 100.375 86.0102 100.379C81.2847 100.389 76.5593 100.392 71.8338 100.379C69.5066 100.372 68.5561 99.4225 68.5494 97.1002C68.5324 92.9914 68.546 88.8791 68.546 84.5771C67.8559 84.5432 67.264 84.4889 66.6686 84.4855C63.0696 84.4787 59.4671 84.4991 55.8681 84.4787C53.666 84.4652 52.6986 83.4888 52.6885 81.2649C52.6716 76.417 52.6716 71.5691 52.6885 66.7212C52.6952 64.4939 53.6627 63.5243 55.8681 63.5141C60.0185 63.4972 64.1655 63.5073 68.5392 63.5073C68.5392 62.0123 68.5392 60.6766 68.5392 59.3442C68.5392 56.4118 68.5121 53.4793 68.5527 50.5502C68.5764 48.6958 69.5337 47.6483 71.3298 47.6313C76.4477 47.5838 81.5689 47.5838 86.6867 47.6313C88.5268 47.6483 89.457 48.7399 89.4672 50.7265C89.4875 54.893 89.474 59.0595 89.474 63.4192C90.164 63.4531 90.7559 63.5039 91.3513 63.5039C94.9503 63.5107 98.5528 63.4938 102.152 63.5141C104.354 63.5243 105.321 64.4973 105.331 66.7246C105.352 71.5725 105.348 76.4204 105.331 81.2683C105.325 83.4888 104.351 84.4686 102.148 84.4787C97.998 84.4957 93.851 84.4855 89.474 84.4855L89.4706 84.4889ZM57.8029 79.4003C58.6147 79.4003 59.2168 79.4003 59.8189 79.4003C63.3639 79.4003 66.9054 79.3868 70.4504 79.4037C72.7268 79.4139 73.6063 80.2987 73.6164 82.5769C73.6334 86.3535 73.6503 90.1335 73.6063 93.9101C73.5928 94.9339 73.931 95.3035 74.9627 95.2831C77.6045 95.2323 80.2531 95.2153 82.8948 95.2899C84.0889 95.3238 84.4407 94.9068 84.4204 93.7338C84.3595 90.0148 84.3899 86.2925 84.4035 82.5701C84.4136 80.2851 85.2829 79.4173 87.5729 79.4071C91.3411 79.3901 95.1127 79.3732 98.8809 79.4173C99.9024 79.4308 100.268 79.0918 100.247 78.0544C100.193 75.4067 100.18 72.7522 100.254 70.1045C100.288 68.9044 99.8652 68.5553 98.7016 68.5756C94.9909 68.6366 91.2769 68.6061 87.5628 68.5925C85.2931 68.5824 84.417 67.7009 84.4069 65.4126C84.3899 61.636 84.3696 57.856 84.417 54.0793C84.4305 53.0454 84.0821 52.6962 83.0572 52.7165C80.4154 52.7674 77.7669 52.7843 75.1251 52.7063C73.9276 52.6724 73.5826 53.0894 73.6029 54.259C73.6672 57.9238 73.63 61.5885 73.6198 65.2533C73.6131 67.7484 72.7776 68.5858 70.2812 68.5892C66.6247 68.5959 62.9681 68.562 59.3115 68.6332C58.8042 68.6434 57.8807 69.1384 57.8706 69.4333C57.7657 72.6811 57.8063 75.9356 57.8063 79.3935L57.8029 79.4003Z" fill="#3FD6C5"/>
<path d="M74.3201 147.79C69.5405 147.79 64.7609 147.892 59.9847 147.759C55.4825 147.637 51.2645 146.241 47.2324 144.284C41.7222 141.61 36.212 138.935 30.7322 136.202C25.2525 133.47 19.519 131.955 13.3559 132.138C9.9294 132.239 6.49271 132.178 3.06278 132.144C1.28354 132.124 0.211269 131.249 0.018462 129.819C-0.177727 128.341 0.935139 126.974 2.62981 126.927C13.6908 126.608 24.6537 126.605 34.7372 132.429C39.5438 135.206 44.7056 137.369 49.722 139.769C53.8352 141.738 58.1548 142.772 62.7483 142.742C71.3536 142.681 79.9588 142.739 88.5675 142.708C89.3861 142.708 90.2588 142.569 91.0131 142.261C97.8357 139.494 104.628 136.643 111.461 133.9C112.766 133.378 113.132 132.67 112.905 131.344C112.327 127.944 109.58 125.947 105.585 126.642C101.847 127.293 98.1909 128.432 94.5005 129.354C93.7969 129.531 93.0967 129.785 92.383 129.842C91.0841 129.948 90.2114 129.263 89.8901 128.032C89.5755 126.818 89.907 125.608 91.1078 125.184C96.936 123.116 102.778 120.913 109.14 121.716C115.334 122.499 119.312 128.642 117.566 134.507C117.052 136.24 116.054 137.48 114.366 138.175C106.84 141.284 99.3308 144.434 91.7911 147.508C90.9353 147.858 89.934 147.963 88.9971 147.973C84.1025 148.017 79.2113 147.993 74.3167 147.993C74.3167 147.925 74.3167 147.858 74.3167 147.793L74.3201 147.79Z" fill="#234360"/>
<path d="M82.687 0.234143C87.9165 0.234143 93.146 0.112098 98.372 0.271434C102.871 0.41043 107.069 1.88175 111.094 3.85481C116.794 6.65168 122.5 9.44177 128.21 12.2183C133.192 14.6422 138.422 15.9508 143.996 15.8525C147.653 15.7881 151.309 15.8186 154.966 15.8559C156.867 15.8763 158.078 16.9611 157.997 18.5273C157.919 20.0563 156.982 21.0462 155.541 21.0462C147.409 21.0564 139.139 21.9649 131.328 18.9748C126.153 16.995 121.218 14.3812 116.188 12.0217C113.235 10.6351 110.333 9.13665 107.36 7.79755C103.683 6.13977 99.8232 5.25155 95.7607 5.26511C86.9863 5.29223 78.2085 5.25833 69.4341 5.29223C68.5648 5.29562 67.6414 5.47869 66.8329 5.80414C60.061 8.54677 53.3229 11.3775 46.5409 14.0964C45.2318 14.6219 44.8699 15.3304 45.1033 16.6526C45.7088 20.0631 48.4723 22.0565 52.4333 21.3513C56.1711 20.6869 59.8276 19.5546 63.518 18.6324C64.2216 18.4562 64.9218 18.2053 65.6355 18.1443C66.9378 18.0358 67.8037 18.7375 68.1251 19.9614C68.4396 21.175 68.098 22.3785 66.8972 22.8057C61.0149 24.894 55.1191 27.1553 48.7023 26.2467C42.5765 25.3788 38.717 19.2528 40.4455 13.4726C40.963 11.7403 41.9676 10.5232 43.6589 9.82485C51.1344 6.74321 58.593 3.61411 66.0786 0.552816C66.9378 0.203631 67.9255 0.0307343 68.8557 0.0205638C73.4695 -0.0336784 78.08 -0.00316715 82.6938 -0.00316715C82.6938 0.071416 82.6938 0.145999 82.6938 0.223972L82.687 0.234143Z" fill="#234360"/>
<path d="M79.2893 129.243C80.1484 126.571 79.5125 124.259 78.1189 122.12C76.6238 119.825 74.4184 118.337 71.966 117.272C66.5065 114.899 60.9963 112.641 55.5436 110.254C54.7385 109.902 53.8625 109.227 53.4836 108.468C50.5543 102.583 45.6902 99.4806 39.3986 98.3686C34.7408 97.5448 30.2318 98.2364 25.8142 99.8162C24.9854 100.111 24.0823 100.355 23.213 100.362C16.573 100.406 9.93636 100.389 3.29637 100.386C2.90399 100.386 2.49132 100.42 2.12262 100.318C0.779735 99.9484 -0.0659085 99.0771 0.0355687 97.6397C0.133663 96.2125 1.02328 95.3581 2.45411 95.3005C4.36526 95.2259 6.2798 95.27 8.19095 95.2666C11.0053 95.2666 13.8196 95.2056 16.6305 95.2836C20.5238 95.392 24.2649 94.914 28.0805 93.9106C36.75 91.629 44.9866 92.8833 52.1001 98.6737C54.0654 100.274 55.4557 102.569 57.174 104.491C57.8167 105.213 58.5406 106 59.3963 106.373C63.8816 108.329 68.4278 110.139 72.9334 112.038C75.9676 113.316 78.7413 115.007 80.9975 117.458C85.0396 121.855 85.98 128.348 83.3517 133.704C82.5704 135.297 81.312 135.697 79.3603 134.891C73.8027 132.595 68.2587 130.277 62.7079 127.961C58.6116 126.253 54.5119 124.54 50.419 122.825C48.4909 122.015 47.7874 120.676 48.474 119.164C49.0964 117.794 50.5949 117.377 52.364 118.109C60.5667 121.513 68.7695 124.927 76.9722 128.334C77.6927 128.632 78.4267 128.904 79.2893 129.239V129.243Z" fill="#234360"/>
<path d="M78.6906 18.7404C77.9227 21.6153 78.5553 23.9816 80.0774 26.1377C81.8668 28.6735 84.4815 30.1211 87.2451 31.3009C92.3088 33.4604 97.4097 35.5284 102.453 37.7252C103.258 38.0744 104.134 38.7558 104.517 39.5152C107.49 45.448 112.398 48.5567 118.767 49.6416C123.378 50.4247 127.816 49.6992 132.186 48.194C133.17 47.855 134.253 47.6482 135.291 47.638C141.647 47.5871 148.006 47.6109 154.362 47.6143C154.866 47.6143 155.397 47.5566 155.874 47.6821C157.22 48.0279 158.069 48.9127 157.978 50.3467C157.887 51.7638 157.014 52.6385 155.576 52.7029C153.892 52.7808 152.201 52.73 150.513 52.7334C147.587 52.7334 144.661 52.7808 141.735 52.7232C137.74 52.6452 133.874 53.0215 129.943 54.0759C121.538 56.3337 113.48 55.1641 106.455 49.7365C104.364 48.1228 102.859 45.7599 101.026 43.7936C100.254 42.9664 99.4494 42.0171 98.4583 41.5798C93.8343 39.5254 89.1123 37.6981 84.4883 35.6471C82.7057 34.8572 80.9839 33.83 79.4178 32.6604C73.4882 28.2362 71.7089 21.6221 74.4691 14.7706C75.2708 12.784 76.4648 12.2212 78.4842 13.0586C88.2463 17.0962 97.9949 21.161 107.737 25.2393C109.57 26.0055 110.203 27.3514 109.55 28.8295C108.948 30.1957 107.419 30.6364 105.66 29.9076C97.2474 26.4225 88.8417 22.9239 80.4292 19.432C79.9151 19.2184 79.3941 19.0218 78.677 18.7404H78.6906Z" fill="#234360"/>
<path d="M23.6401 74.5387C23.8363 62.1206 27.2256 51.3434 34.0753 41.6849C34.2715 41.4103 34.4576 41.1255 34.6808 40.8712C35.7091 39.7084 37.1636 39.5186 38.29 40.3831C39.342 41.1899 39.5856 42.6002 38.8008 43.8681C37.4985 45.9734 36.0169 47.9736 34.8364 50.1433C29.2281 60.4764 27.6146 71.474 29.6137 83.0344C29.7017 83.5328 29.7829 84.0345 29.8404 84.5396C30.0129 86.0347 29.4209 87.0958 27.9495 87.4925C26.5762 87.8654 25.3179 87.0517 24.9559 85.4889C24.55 83.7396 24.2287 81.9631 24.0291 80.1799C23.7957 78.1119 23.7348 76.0236 23.6367 74.5387H23.6401Z" fill="#3FD6C5"/>
<path d="M134.371 73.4031C134.195 85.8822 130.745 96.8086 123.753 106.593C122.85 107.857 121.791 108.657 120.192 108.054C118.534 107.43 118.307 105.647 119.37 103.823C121.541 100.087 123.95 96.4357 125.631 92.4794C129.355 83.7057 130.042 74.5015 128.435 65.1176C128.32 64.4531 128.188 63.7751 128.205 63.1072C128.242 61.8359 128.871 60.9613 130.184 60.7579C131.51 60.5511 132.626 61.002 132.974 62.3411C133.438 64.1311 133.756 65.9685 133.976 67.806C134.216 69.8163 134.27 71.8504 134.371 73.3997V73.4031Z" fill="#3FD6C5"/>
<path d="M42.2848 34.3085C42.4336 32.8101 43.9794 31.5286 45.461 31.671C46.8715 31.8032 47.8153 33.0542 47.6292 34.5424C47.4533 35.9697 45.9075 37.2071 44.5105 37.041C43.1913 36.885 42.1528 35.6103 42.2848 34.3051V34.3085Z" fill="#3FD6C5"/>
<path d="M116.147 113.654C116.171 114.99 114.831 116.309 113.428 116.333C111.963 116.356 110.83 115.255 110.84 113.81C110.85 112.386 112.119 111.207 113.631 111.217C114.997 111.224 116.123 112.315 116.144 113.654H116.147Z" fill="#3FD6C5"/>
</g>
<defs>
<clipPath id="clip0_4378_4635">
<rect width="158" height="148" fill="white"/>
</clipPath>
</defs>
</svg>
