<svg width="115" height="115" viewBox="0 0 115 115" fill="none" xmlns="http://www.w3.org/2000/svg">
<g clip-path="url(#clip0_4399_5385)">
<path d="M97.05 43.94C104.539 43.94 110.61 50.0108 110.61 57.4998C110.61 64.9888 104.539 71.0596 97.05 71.0596H17.95C10.461 71.0596 4.39024 64.9888 4.39024 57.4998C4.39024 50.0108 10.461 43.94 17.95 43.94H97.05ZM97.05 39.5498H17.95C15.5293 39.5498 13.1768 40.0254 10.9622 40.962C8.82439 41.8669 6.90488 43.1596 5.25732 44.8071C3.60976 46.4547 2.31707 48.373 1.4122 50.512C0.47439 52.7279 0 55.0791 0 57.4998C0 59.9205 0.47561 62.2718 1.4122 64.4876C2.31707 66.6254 3.60976 68.5449 5.25732 70.1925C6.90488 71.8401 8.82317 73.1327 10.9622 74.0376C13.178 74.9754 15.5293 75.4498 17.95 75.4498H97.05C99.4707 75.4498 101.822 74.9742 104.038 74.0376C106.176 73.1327 108.095 71.8401 109.743 70.1925C111.39 68.5449 112.683 66.6266 113.588 64.4876C114.526 62.2718 115 59.9205 115 57.4998C115 55.0791 114.524 52.7279 113.588 50.512C112.683 48.3742 111.39 46.4547 109.743 44.8071C108.095 43.1596 106.177 41.8669 104.038 40.962C101.822 40.0242 99.4707 39.5498 97.05 39.5498Z" fill="#5BC4BB"/>
<path d="M57.5 4.39024C64.989 4.39024 71.0597 10.461 71.0597 17.95V97.05C71.0597 104.539 64.989 110.61 57.5 110.61C50.011 110.61 43.9402 104.539 43.9402 97.05V17.95C43.9402 10.461 50.011 4.39024 57.5 4.39024ZM57.5 0C55.0793 0 52.728 0.47561 50.5122 1.4122C48.3744 2.31707 46.4549 3.60976 44.8073 5.25732C43.1597 6.90488 41.8671 8.82317 40.9622 10.9622C40.0244 13.178 39.55 15.5293 39.55 17.95V97.05C39.55 99.4707 40.0256 101.822 40.9622 104.038C41.8671 106.176 43.1597 108.095 44.8073 109.743C46.4549 111.39 48.3732 112.683 50.5122 113.588C52.728 114.526 55.0793 115 57.5 115C59.9207 115 62.2732 114.524 64.4878 113.588C66.6256 112.683 68.5451 111.39 70.1927 109.743C71.8402 108.095 73.1329 106.177 74.0378 104.038C74.9756 101.822 75.45 99.4707 75.45 97.05V17.95C75.45 15.5293 74.9744 13.178 74.0378 10.9622C73.1329 8.82439 71.8402 6.90488 70.1927 5.25732C68.5451 3.60976 66.6268 2.31707 64.4878 1.4122C62.2719 0.47439 59.9207 0 57.5 0Z" fill="#234461"/>
</g>
<defs>
<clipPath id="clip0_4399_5385">
<rect width="115" height="115" fill="white"/>
</clipPath>
</defs>
</svg>
