<svg width="120" height="120" viewBox="0 0 120 120" fill="none" xmlns="http://www.w3.org/2000/svg">
<g clip-path="url(#clip0_4378_4645)">
<path d="M99.983 104.007C99.983 108.336 99.983 112.465 99.983 116.58C99.983 116.994 99.983 117.408 99.983 117.836C99.983 118.811 99.5821 119.519 98.6468 119.867C97.6714 120.228 96.9232 119.827 96.3486 119.065C94.5582 116.713 92.7945 114.335 91.0174 111.97C89.2403 109.605 87.4499 107.254 85.7129 104.862C85.2452 104.22 84.7508 103.98 83.9491 103.993C74.2353 104.02 64.5215 104.02 54.821 104.007C48.2204 104.007 44.0382 99.8245 44.0382 93.2506C44.0382 85.3673 44.0382 77.4973 44.0382 69.614C44.0382 69.1197 44.0382 68.6253 44.0382 67.9973C41.072 67.9973 38.1992 67.9572 35.3399 68.0374C34.9657 68.0374 34.5515 68.5718 34.2576 68.946C30.9439 73.3285 27.6436 77.7379 24.3567 82.1472C24.2097 82.3476 24.0493 82.548 23.9024 82.7484C23.2744 83.6036 22.5529 84.2717 21.3904 83.8708C20.2413 83.4833 20.0142 82.5747 20.0142 81.4791C20.0275 77.4706 20.0142 73.4755 20.0142 69.4671C20.0142 69.0128 20.0142 68.5718 20.0142 67.9973C16.6471 67.9973 13.4136 67.9973 10.1667 67.9973C7.37415 67.9973 4.94235 67.0486 2.95148 65.0711C1.04078 63.1471 0.0252986 60.8088 0.0252986 58.1098C-0.00142446 42.0625 -0.014786 26.002 0.0252986 9.95476C0.0386602 4.39636 4.40788 0.0404953 9.97965 0.0271338C28.6457 -0.0129508 47.3252 -0.0129508 65.9912 0.0271338C71.6164 0.0271338 75.9189 4.42308 75.9589 10.0884C75.999 18.1721 75.9589 26.2692 75.9589 34.3529C75.9589 34.8473 75.9589 35.3417 75.9589 36.0365C76.5068 36.0365 76.9878 36.0365 77.4554 36.0365C88.0378 36.0365 98.6335 36.0365 109.216 36.0365C115.803 36.0365 119.972 40.2186 119.972 46.8326C119.972 62.2919 119.972 77.7646 119.972 93.2239C119.972 99.8245 115.803 104.007 109.216 104.007C106.183 104.007 103.15 104.007 99.9696 104.007H99.983ZM96.0413 112.01C96.0413 111.275 96.0413 110.888 96.0413 110.487C96.0413 107.908 96.0413 105.316 96.0413 102.737C96.0413 100.706 96.6827 100.078 98.7537 100.078C102.254 100.078 105.755 100.078 109.256 100.078C113.679 100.078 116.057 97.7134 116.057 93.3041C116.057 77.7913 116.057 62.2919 116.057 46.7792C116.057 42.3431 113.692 39.9781 109.283 39.9781C93.9436 39.9781 78.6045 39.9781 63.2788 39.9781C62.9448 39.9781 62.6108 39.9781 62.2767 39.9781C60.9005 39.9247 60.032 39.1364 60.0587 37.9605C60.0854 36.8382 60.9272 36.0766 62.25 36.0498C63.7465 36.0231 65.2563 36.0498 66.7528 36.0498C68.4898 36.0498 70.2268 36.0498 72.0574 36.0498C72.0574 35.5287 72.0574 35.1546 72.0574 34.7939C72.0574 26.63 72.0574 18.4527 72.0574 10.2888C72.0574 6.49412 69.5053 3.98215 65.6706 3.98215C47.245 3.98215 28.8328 3.98215 10.4072 3.98215C6.49228 3.98215 3.96695 6.48076 3.96695 10.369C3.96695 26.1222 3.96695 41.8755 3.96695 57.6421C3.96695 61.5437 6.47892 64.069 10.3538 64.0824C14.0683 64.0824 17.7694 64.0824 21.4839 64.0824C23.2877 64.0824 23.9692 64.7772 23.9692 66.581C23.9692 69.3335 23.9692 72.0859 23.9692 74.8384C23.9692 75.1324 24.036 75.4397 24.0894 75.9474C24.4903 75.4397 24.7441 75.119 24.998 74.785C27.3764 71.6183 29.7681 68.4649 32.1064 65.2715C32.7344 64.4164 33.4826 64.0423 34.5382 64.0556C38.1591 64.0957 41.7935 64.0556 45.4145 64.069C47.3519 64.069 47.9665 64.6569 47.9665 66.581C47.9665 75.5065 47.9665 84.4186 47.9665 93.3441C47.9665 97.6866 50.3582 100.092 54.6606 100.092C64.8288 100.092 74.9969 100.105 85.165 100.065C86.4745 100.065 87.343 100.506 88.1046 101.548C90.376 104.688 92.741 107.761 95.0659 110.861C95.3064 111.168 95.5737 111.462 96.0413 112.024V112.01Z" fill="#234360"/>
<path d="M32.2539 93.8514C32.2539 92.5686 32.9888 91.7269 34.1512 91.7135C35.3137 91.6868 36.1288 92.5286 36.1688 93.7712C36.2089 95.0272 35.3137 96.0159 34.178 96.0026C33.0556 95.9892 32.2673 95.1073 32.2539 93.8647V93.8514Z" fill="#3FD6C5"/>
<path d="M32.2541 101.815C32.2541 100.545 33.029 99.7168 34.1915 99.7168C35.3406 99.7168 36.1556 100.572 36.169 101.801C36.1824 103.057 35.2738 104.033 34.1381 103.992C33.0157 103.952 32.2407 103.071 32.2541 101.815Z" fill="#3FD6C5"/>
<path d="M32.2541 109.818C32.2541 108.549 33.029 107.721 34.1915 107.721C35.3406 107.721 36.1556 108.576 36.169 109.805C36.1824 111.061 35.2738 112.036 34.1381 111.996C33.0157 111.956 32.2407 111.074 32.2541 109.818Z" fill="#3FD6C5"/>
<path d="M96.1745 26.1085C96.1345 27.2576 95.3194 27.9925 94.1302 27.9658C92.9143 27.9257 92.0325 27.0705 92.0592 25.9482C92.0859 24.8659 93.0212 23.9974 94.1035 24.0375C95.2259 24.0776 96.2146 25.0529 96.1745 26.1085Z" fill="#3FD6C5"/>
<path d="M104.178 26.0951C104.152 27.2442 103.337 27.9925 102.147 27.9657C100.932 27.939 100.036 27.0839 100.063 25.9615C100.076 24.8792 101.012 23.9974 102.094 24.0374C103.216 24.0775 104.205 25.0396 104.178 26.0951Z" fill="#3FD6C5"/>
<path d="M110.168 27.966C108.952 27.9393 108.057 27.0975 108.07 25.9751C108.07 24.8928 109.006 24.011 110.088 24.0377C111.21 24.0644 112.199 25.0265 112.186 26.082C112.172 27.2311 111.357 27.9927 110.168 27.966Z" fill="#3FD6C5"/>
<path d="M38.0136 12.0254C41.2204 12.0254 43.9862 14.1232 44.7344 17.33C46.3645 24.3849 47.9011 31.4531 49.4778 38.5214C50.2661 42.0488 51.0411 45.5896 51.8161 49.1171C52.1501 50.6269 51.5889 51.6959 50.3597 51.9364C49.2239 52.1502 48.3421 51.4019 47.9947 49.9321C47.5938 48.2352 47.1796 46.5383 46.8456 44.8147C46.712 44.1199 46.4046 43.9595 45.7633 43.9595C40.5924 43.9729 35.4348 43.9863 30.2639 43.9595C29.529 43.9595 29.2618 44.2 29.1282 44.9082C28.7941 46.6185 28.3799 48.3288 27.9924 50.0257C27.6718 51.4153 26.7765 52.1234 25.6542 51.8963C24.4516 51.6558 23.8504 50.6002 24.1577 49.2106C26.4692 38.7753 28.7674 28.3265 31.0923 17.8912C31.894 14.2836 34.6064 12.0121 38.0136 12.0254ZM45.7098 39.9644C45.6297 39.5235 45.5896 39.1494 45.5094 38.7886C44.0263 32.0945 42.5298 25.4004 41.0333 18.7062C40.6324 16.9291 39.5234 15.9537 37.9735 15.9671C36.4236 15.9671 35.368 16.9425 34.9538 18.7463C34.0719 22.6345 33.2034 26.5361 32.3483 30.4243C31.6535 33.5776 30.9587 36.7309 30.2505 39.9511H45.7232L45.7098 39.9644Z" fill="#3FD6C5"/>
<path d="M85.8346 80.6106C83.4563 78.3658 82.2537 75.4664 82.2537 71.9256C82.2537 67.9037 83.5364 64.8439 86.0885 62.7328C88.2397 60.9958 90.9788 60.1273 94.3058 60.1273C97.232 60.1273 99.5569 60.9424 101.254 62.5725C103.018 64.2026 103.926 66.4874 103.966 69.4269V79.5416C103.966 80.9045 103.458 82.067 102.43 83.0156C101.548 83.8307 100.519 84.2449 99.3699 84.2449H67.8099C66.113 84.2449 64.563 83.7372 63.1601 82.7083C60.9153 81.0381 59.793 78.7533 59.793 75.8138V66.2068L61.9843 64.4164H64.1355V75.8004C64.1355 77.2301 64.6833 78.4193 65.7656 79.3679C66.6474 80.183 67.7431 80.5972 69.0392 80.5972H85.8346V80.6106ZM99.6237 69.4269C99.6237 67.6499 99.1427 66.2736 98.194 65.2849C97.2454 64.2961 95.9493 63.8017 94.3058 63.8017C91.8607 63.8017 89.9633 64.5233 88.6405 65.9797C87.3177 67.4227 86.6497 69.467 86.6497 72.0859C86.6497 74.7048 87.5182 76.8159 89.2552 78.4193C90.7517 79.8757 92.6624 80.6106 94.9739 80.6106H97.6729C98.969 80.6106 99.6104 79.9692 99.6104 78.6731V69.4403L99.6237 69.4269ZM94.3058 49.5049C94.9873 49.5049 95.5752 49.7454 96.0696 50.2398C96.5639 50.7341 96.8044 51.3221 96.8044 52.0035C96.8044 52.725 96.5506 53.3263 96.0696 53.8207C95.5885 54.315 94.9873 54.5555 94.3058 54.5555C93.6244 54.5555 92.9964 54.315 92.4887 53.8207C91.9943 53.3263 91.7538 52.725 91.7538 52.0035C91.7538 51.282 91.9943 50.7341 92.4887 50.2398C92.983 49.7454 93.5843 49.5049 94.3058 49.5049Z" fill="#3FD6C5"/>
</g>
<defs>
<clipPath id="clip0_4378_4645">
<rect width="120" height="120" fill="white"/>
</clipPath>
</defs>
</svg>
