<svg width="179" height="148" viewBox="0 0 179 148" fill="none" xmlns="http://www.w3.org/2000/svg">
<g clip-path="url(#clip0_4378_4601)">
<path d="M9.59096 127.687C9.67511 127.341 9.77328 127.12 9.77328 126.904C9.7873 121.6 9.77328 116.296 9.80834 110.989C9.81535 109.97 9.35606 109.673 8.42696 109.691C6.79316 109.722 5.15584 109.698 3.52204 109.694C3.05574 109.694 2.58593 109.715 2.11963 109.67C0.738256 109.533 -0.10319 108.728 0.00549656 107.598C0.128207 106.321 0.969653 105.797 2.16521 105.783C4.14962 105.758 6.13753 105.772 8.12194 105.769C9.17375 105.769 10.2536 105.625 11.2668 105.818C12.0382 105.965 12.9497 106.381 13.3915 106.979C13.8999 107.668 14.3662 107.857 15.12 107.784C15.9334 107.703 16.7503 107.64 17.5672 107.616C18.8258 107.581 19.7514 107.025 20.5508 106.056C21.28 105.167 22.0864 104.282 23.0296 103.642C24.0463 102.945 23.7728 102.043 23.8184 101.151C23.8675 100.192 23.1172 100.094 22.4651 99.8386C18.9661 98.4672 17.164 95.8223 17.1429 92.0158C17.1254 88.8671 17.1254 85.7184 17.1429 82.5732C17.1745 77.6857 20.4947 74.3585 25.4347 74.341C34.0805 74.3096 42.7229 74.369 51.3687 74.2851C52.5818 74.2746 53.9001 73.8932 54.9799 73.3265C60.0426 70.664 65.0317 67.8687 70.0593 65.1398C72.447 63.8453 73.7442 64.6045 73.7477 67.3089C73.7582 80.6595 73.7617 94.0065 73.7477 107.357C73.7477 110.044 72.454 110.786 70.0313 109.477C64.7968 106.647 59.5869 103.761 54.3418 100.944C53.6547 100.577 52.8132 100.321 52.0384 100.311C47.5402 100.251 43.0419 100.272 38.5472 100.293C37.9021 100.293 37.0151 100.035 36.8959 101.088C36.7977 101.941 36.668 102.791 37.6672 103.372C41.1171 105.373 42.0988 108.379 41.2363 112.182C40.2161 116.667 39.3185 121.183 38.3404 125.679C37.4954 129.566 35.1779 131.707 31.2091 131.941C28.243 132.116 25.2559 132.022 22.2758 131.966C20.5438 131.935 18.9941 131.315 17.5777 130.269C16.9536 129.807 16.1332 129.545 15.3619 129.37C14.531 129.185 13.9034 129.419 13.388 130.332C13.0374 130.958 12.0522 131.553 11.3264 131.588C8.29724 131.728 5.25401 131.7 2.2178 131.634C0.766304 131.602 -0.00502151 130.804 -0.00151549 129.671C0.00199053 128.471 0.815388 127.827 2.43166 127.803C4.24077 127.778 6.05339 127.803 7.86249 127.785C8.43047 127.782 8.99494 127.722 9.58395 127.687H9.59096ZM69.6947 70.0413C69.3757 70.0868 69.1863 70.0658 69.0496 70.1393C64.8424 72.4203 60.6211 74.6769 56.4595 77.0384C55.9897 77.3043 55.6426 78.1335 55.597 78.7282C55.4778 80.3516 55.5725 81.9889 55.5444 83.6227C55.5164 85.1271 54.8958 85.9003 53.7528 85.9528C52.5538 86.0088 51.786 85.1901 51.6913 83.6437C51.6247 82.5382 51.6668 81.4291 51.6597 80.3201C51.6422 78.2629 51.6422 78.2559 49.6333 78.2524C45.0754 78.2454 40.5211 78.2524 35.9633 78.2524C32.3415 78.2524 28.7198 78.221 25.0981 78.2734C22.7631 78.3084 21.1398 79.7848 21.0872 82.0274C21.0031 85.582 21.0031 89.14 21.0977 92.6945C21.1538 94.8322 22.693 96.3191 24.8246 96.3296C33.2952 96.375 41.7657 96.3435 50.2363 96.361C51.1549 96.361 51.6948 96.0777 51.6597 95.0736C51.6457 94.7272 51.6773 94.3739 51.7299 94.0275C51.9052 92.908 52.5362 92.1663 53.7002 92.1977C54.8677 92.2292 55.4638 92.9849 55.5409 94.136C55.569 94.5418 55.6145 94.9616 55.5479 95.357C55.32 96.7284 55.9616 97.4596 57.1502 98.0823C60.7719 99.9751 64.3305 101.983 67.9207 103.932C68.4431 104.215 69.004 104.432 69.6982 104.747V70.0448L69.6947 70.0413ZM13.7211 118.496C13.7211 120.302 13.7491 122.111 13.7105 123.916C13.6895 124.913 14.0121 125.406 15.1059 125.42C16.9711 125.441 18.605 126.123 20.116 127.243C20.7366 127.705 21.5921 128.055 22.3564 128.079C25.2734 128.174 28.1974 128.174 31.1144 128.09C32.7027 128.044 33.9754 127.26 34.3435 125.623C35.49 120.508 36.6259 115.39 37.6181 110.247C38.0213 108.151 36.6084 106.591 34.4627 106.524C31.8367 106.447 29.2002 106.388 26.5847 106.573C25.6661 106.64 24.5091 107.242 23.9727 107.973C22.1495 110.446 19.8391 111.66 16.7853 111.531C16.3786 111.513 15.9684 111.566 15.5582 111.555C14.275 111.524 13.6264 112.014 13.7 113.42C13.7912 115.106 13.7211 116.8 13.7246 118.489L13.7211 118.496ZM32.8114 100.44C32.3871 100.37 32.1627 100.304 31.9384 100.297C31.132 100.279 30.3221 100.265 29.5157 100.276C27.64 100.304 27.4682 100.573 28.1203 102.473H32.8114V100.44Z" fill="#3FD6C5"/>
<path d="M110.396 97.5928C112.742 96.4943 115.164 95.5217 117.412 94.2517C118.916 93.4015 120.104 93.426 121.647 94.1537C144.299 104.814 170.802 90.6971 174.679 65.9517C177.828 45.856 163.954 26.6383 143.903 23.3147C143.732 23.2867 143.553 23.2797 143.381 23.2447C141.894 22.9298 141.137 22.0482 141.358 20.8937C141.579 19.7461 142.575 19.1899 144.1 19.4033C144.794 19.5012 145.481 19.6412 146.165 19.7881C163.456 23.4966 176.411 37.5364 178.655 54.9907C181.558 77.581 165.567 98.3275 142.939 101.27C135.356 102.256 128.032 101.168 121.027 98.1176C119.999 97.6698 119.256 97.7013 118.285 98.2295C114.302 100.402 110.105 101.938 105.502 102.13C104.471 102.172 103.472 102.158 102.946 101.067C102.417 99.9718 103.062 99.2196 103.714 98.4185C105.369 96.3858 106.943 94.2902 108.594 92.254C109.45 91.1974 109.327 90.4592 108.335 89.4691C103.055 84.2143 99.4434 77.9658 97.5151 70.7658C96.9506 68.6596 97.3433 67.4631 98.7001 67.1587C99.9728 66.8719 100.649 67.5821 101.267 69.8002C103.272 77.0002 106.96 83.1682 112.556 88.1712C114.291 89.7245 114.369 90.1478 113.145 92.205C112.167 93.8493 111.101 95.4377 110.074 97.054C110.179 97.2325 110.288 97.4144 110.393 97.5928H110.396Z" fill="#234360"/>
<path d="M90.4308 53.8814C86.5882 53.731 83.559 52.5975 81.0207 50.1939C78.1142 47.4406 77.0834 43.9735 76.838 40.1251C76.5295 35.3005 76.1648 30.476 75.7967 25.655C75.1937 17.6817 80.4948 11.6992 88.8637 11.003C99.5114 10.1178 110.166 9.35514 120.807 8.38953C128.71 7.67233 135.827 14.2391 135.038 22.9401C134.438 29.5559 133.874 36.1717 133.397 42.798C132.878 50.0155 127.381 55.2914 120.113 55.1619C114.451 55.0605 108.792 54.7281 103.133 54.4412C101.857 54.3747 100.977 54.7421 100.1 55.7112C97.7339 58.3281 94.9466 60.4378 91.7701 62.0191C90.8901 62.4564 90.0276 62.7293 89.1617 62.0016C88.2256 61.2179 88.4184 60.2943 88.755 59.2937C89.3229 57.5969 89.8173 55.8721 90.4238 53.8849L90.4308 53.8814ZM93.993 55.7882C94.0841 55.8406 94.1718 55.8931 94.2629 55.9491C95.3077 54.9555 96.5453 54.0984 97.3623 52.9438C98.961 50.6837 101.047 50.1135 103.606 50.5508C103.894 50.5998 104.188 50.6173 104.479 50.6278C109.847 50.8517 115.211 51.1875 120.579 51.2645C125.277 51.331 128.945 47.9059 129.418 43.2598C129.782 39.6667 130.087 36.0702 130.368 32.4702C130.659 28.7547 131.045 25.0357 131.115 21.3132C131.213 16.0164 126.771 11.8706 121.508 12.182C118.479 12.3604 115.46 12.6788 112.438 12.9342C104.704 13.5919 96.9801 14.4386 89.2353 14.8479C83.3171 15.1628 79.2431 19.6234 79.6919 25.0707C80.1442 30.5285 80.3686 36.0037 80.8874 41.451C81.3608 46.419 84.5653 49.3928 89.5929 49.8896C90.5816 49.9875 91.5738 50.026 92.559 50.1275C94.0666 50.2779 94.7362 51.0896 94.5469 52.594C94.4102 53.6645 94.1823 54.7211 93.993 55.7847V55.7882Z" fill="#234360"/>
<path d="M93.3346 113.952C92.8718 112.108 92.4861 110.475 92.0409 108.858C91.7709 107.882 91.7674 107.011 92.6474 106.336C93.4713 105.703 94.3022 105.94 95.1051 106.385C98.0993 108.047 100.683 110.223 102.906 112.798C103.73 113.753 104.634 114.019 105.813 114.012C113.754 113.973 121.695 113.921 129.636 113.97C137.689 114.022 143.751 117.976 146.472 124.805C150.833 135.755 142.808 147.846 131.007 147.937C118.862 148.032 106.714 147.986 94.5687 147.955C85.5197 147.93 78.3358 141.245 77.547 132.194C76.8107 123.762 83.0865 115.785 91.6868 114.229C92.139 114.148 92.5913 114.078 93.3346 113.952ZM97.4717 112.647C97.3525 112.721 97.2333 112.791 97.1141 112.864C97.1947 113.609 97.2718 114.358 97.3595 115.103C97.5839 117.034 96.9493 117.71 94.9754 117.853C93.6431 117.951 92.2863 118.063 91.0066 118.416C84.7098 120.148 80.6989 126.253 81.5263 132.715C82.3537 139.173 87.7425 144.092 94.5301 144.162C106.559 144.288 118.588 144.316 130.618 144.162C139.435 144.047 145.459 136.105 143.362 127.747C141.893 121.897 136.648 117.885 130.288 117.857C121.53 117.818 112.768 117.825 104.01 117.867C102.727 117.874 101.805 117.482 100.988 116.492C99.8838 115.156 98.6532 113.931 97.4752 112.658L97.4717 112.647Z" fill="#234360"/>
<path d="M158.182 118.5C155.115 118.472 152.569 115.918 152.622 112.923C152.678 109.89 155.241 107.43 158.305 107.479C161.271 107.525 163.771 110.026 163.782 112.958C163.792 115.974 161.212 118.524 158.182 118.5ZM159.869 113.017C159.771 111.996 159.234 111.422 158.193 111.429C157.141 111.436 156.563 112.045 156.58 113.052C156.598 113.983 157.176 114.529 158.137 114.55C159.168 114.571 159.739 114.036 159.869 113.017Z" fill="#234360"/>
<path d="M148.546 0.000156069C151.203 -0.0208353 153.342 2.07831 153.356 4.71973C153.37 7.31916 151.186 9.55125 148.612 9.56874C146.046 9.58624 143.806 7.37164 143.778 4.7862C143.746 2.17277 145.895 0.0176489 148.546 0.000156069Z" fill="#234360"/>
<path d="M14.8935 87.2994C14.8935 88.286 14.8935 89.2726 14.8935 90.2592C14.89 91.4697 14.3396 92.2814 13.1089 92.4528C12.0922 92.5963 11.1596 91.7741 11.107 90.5006C11.0159 88.3 11.0404 86.0924 11.1456 83.8918C11.1947 82.8422 11.9309 82.2125 13.0353 82.2475C14.1292 82.2825 14.7743 82.9262 14.8514 83.9898C14.9286 85.0883 14.869 86.1939 14.869 87.2959C14.8795 87.2959 14.89 87.2959 14.9005 87.2959L14.8935 87.2994Z" fill="#3FD6C5"/>
<path d="M79.5437 78.5076C79.2702 78.2802 78.5444 77.9478 78.3201 77.4055C78.0992 76.8668 78.1272 75.8172 78.4883 75.5163C79.761 74.4492 81.1705 73.5046 82.643 72.7349C83.0637 72.5145 84.0805 72.8574 84.4521 73.2737C84.8272 73.6935 84.9254 74.5577 84.8132 75.1699C84.6554 76.0516 80.8304 78.5391 79.5401 78.5076H79.5437Z" fill="#3FD6C5"/>
<path d="M82.9215 102.442C81.2562 101.179 79.689 100.119 78.3252 98.8419C78.0271 98.562 78.234 97.299 78.6267 96.8582C79.0123 96.4244 80.0957 96.1095 80.5795 96.3474C81.9644 97.0296 83.2897 97.9148 84.4502 98.9363C84.8534 99.2932 84.9515 100.378 84.7236 100.952C84.5028 101.511 83.6929 101.84 82.9251 102.442H82.9215Z" fill="#3FD6C5"/>
<path d="M83.1811 85.4562C83.8227 85.4562 84.4678 85.4177 85.1059 85.4632C86.2103 85.5437 86.8484 86.2294 86.8905 87.2685C86.9325 88.3251 86.3049 89.0702 85.2111 89.1402C83.8157 89.2277 82.4133 89.2277 81.0179 89.1577C79.91 89.1052 79.3104 88.3495 79.3245 87.2965C79.335 86.2329 80.0011 85.5717 81.081 85.4702C81.7752 85.4037 82.4799 85.4597 83.1811 85.4562Z" fill="#3FD6C5"/>
<path d="M98.5451 127.12C100.554 127.103 102.128 128.625 102.16 130.615C102.191 132.606 100.642 134.212 98.6713 134.233C96.7185 134.257 95.0706 132.672 95.0321 130.727C94.99 128.782 96.5958 127.134 98.5451 127.12Z" fill="#234360"/>
<path d="M112.601 127.12C114.547 127.12 116.149 128.705 116.17 130.64C116.191 132.564 114.603 134.201 112.675 134.24C110.645 134.278 109.011 132.655 109.035 130.622C109.06 128.656 110.627 127.117 112.601 127.12Z" fill="#234360"/>
<path d="M123.043 130.626C123.064 128.639 124.638 127.1 126.637 127.117C128.579 127.135 130.209 128.79 130.178 130.717C130.15 132.645 128.485 134.254 126.542 134.237C124.572 134.219 123.022 132.621 123.043 130.626Z" fill="#234360"/>
</g>
<defs>
<clipPath id="clip0_4378_4601">
<rect width="179" height="148" fill="white"/>
</clipPath>
</defs>
</svg>
