<svg width="117" height="148" viewBox="0 0 117 148" fill="none" xmlns="http://www.w3.org/2000/svg">
<g clip-path="url(#clip0_4378_4629)">
<path d="M34.674 107.682C40.4917 99.6013 48.2472 94.959 58.371 94.9502C68.4905 94.9414 76.3207 99.4174 81.9802 107.371C85.0516 106.477 87.9209 105.312 90.9045 104.835C104.592 102.645 116.961 113.283 116.992 127.097C117.001 130.228 117.001 133.359 116.992 136.491C116.983 142.977 112.426 147.786 105.941 147.878C98.0448 147.992 90.1399 148.101 82.257 147.803C79.291 147.689 76.3866 147.729 73.425 147.803C63.4901 148.062 53.5376 148.057 43.6027 147.812C40.5708 147.738 37.5916 147.681 34.5466 147.803C26.734 148.114 18.9038 147.992 11.0824 147.878C4.70665 147.781 -0.342096 142.736 0.0138209 136.53C0.193976 133.408 0.0357911 130.267 0.0489732 127.136C0.101702 110.625 16.966 99.7765 32.1386 106.495C32.9339 106.845 33.7117 107.231 34.6696 107.682H34.674ZM58.4369 142.027C63.1122 142.022 67.7874 142.062 72.4627 142.009C77.5466 141.957 80.4554 139.005 80.4642 133.977C80.473 130.412 80.473 126.847 80.4642 123.282C80.451 110.06 70.7534 100.587 57.4966 100.85C47.0037 101.055 37.7103 109.368 36.726 119.748C36.2954 124.294 36.4052 128.897 36.3745 133.473C36.3349 139.127 39.3185 142.018 45.0571 142.027C49.5126 142.035 53.9682 142.027 58.4281 142.027H58.4369ZM84.4013 142.027C89.0546 142.027 93.2025 142.027 97.3549 142.027C100.062 142.027 102.768 142.105 105.471 141.992C109.206 141.834 111.064 139.85 111.091 136.171C111.113 133.184 111.126 130.197 111.091 127.215C111.042 123.221 109.772 119.651 107.233 116.542C102.369 110.594 93.3739 108.728 86.5236 112.215C85.4075 112.784 84.8407 113.331 85.3372 114.742C85.8645 116.235 86.2116 117.851 86.2863 119.432C86.4797 123.575 86.506 127.727 86.5544 131.875C86.5939 135.229 86.5544 138.584 84.4013 142.031V142.027ZM32.1957 141.983C31.5938 140.183 30.9039 138.711 30.6403 137.165C30.3678 135.536 30.4777 133.837 30.4689 132.164C30.4469 129.181 30.3371 126.194 30.4996 123.221C30.649 120.479 30.9215 117.715 31.5147 115.039C31.8838 113.375 31.418 112.701 30.0119 112.026C19.3124 106.876 6.41154 114.523 5.98092 126.348C5.85789 129.689 5.9238 133.04 5.94577 136.381C5.96774 139.762 7.6946 141.856 11.0604 141.93C18.0557 142.084 25.0554 141.978 32.1957 141.978V141.983Z" fill="#3FD6C5"/>
<path d="M49.3085 0C57.7714 0.262776 65.6807 3.02193 72.0345 9.61761C72.6408 10.2483 73.7833 10.5943 74.7016 10.6512C81.8332 11.0979 88.1518 13.3403 93.0511 18.7272C98.781 25.0251 99.4796 33.5522 94.8219 40.6778C94.0574 41.8515 93.8948 42.7844 94.4265 44.0676C95.3185 46.2136 96.0171 48.4428 96.8036 50.637C97.287 51.9859 97.2255 53.2604 96.0654 54.2195C94.8483 55.2268 93.5125 55.1348 92.1987 54.3202C89.9621 52.9363 87.708 51.5874 85.5022 50.164C84.5135 49.529 83.604 49.3582 82.4264 49.7085C75.5717 51.7538 68.8839 51.3027 62.3456 48.3289C61.5151 47.9523 60.3244 47.9041 59.4455 48.1757C52.0899 50.4312 44.7695 50.4574 37.471 48.0224C36.3856 47.6589 35.5508 47.799 34.6105 48.399C31.5918 50.3173 28.5203 52.1523 25.4884 54.0487C24.0955 54.9203 22.6675 55.437 21.235 54.294C19.7894 53.1378 20.0574 51.6355 20.6198 50.1027C21.7184 47.0939 22.7202 44.0501 23.867 41.0632C24.3064 39.9157 24.1966 39.0661 23.4935 38.0456C16.0281 27.1798 18.3262 14.1899 29.0872 6.26722C34.9444 1.96206 41.575 0.0700737 49.3085 0ZM28.929 44.5362C29.03 44.615 29.1311 44.6895 29.2278 44.7683C30.3307 44.0895 31.4995 43.507 32.5145 42.7187C34.4567 41.2077 36.3066 41.2471 38.6178 42.0924C46.7204 45.0661 54.7088 44.5975 62.3149 40.38C74.6182 33.5609 75.598 18.8717 64.3317 10.7782C55.6096 4.51099 42.4406 4.33581 33.5251 10.349C24.1922 16.6425 22.0128 27.9287 29.7155 36.3025C30.836 37.5245 31.0557 38.8121 30.4713 40.323C29.9308 41.7157 29.4431 43.1304 28.929 44.5362ZM88.3407 44.8822C87.44 42.4778 87.1675 40.7435 88.7186 38.9435C92.2338 34.8704 93.0995 30.2061 90.507 25.3667C87.6728 20.0805 82.8218 17.7637 76.8108 16.8089C80.4622 28.1477 76.7844 36.8894 68.0623 43.9888C72.0828 45.5129 77.5358 45.4472 81.9562 43.6252C83.7973 42.8676 85.3132 42.907 86.8643 44.0676C87.1456 44.2778 87.4883 44.4136 88.3363 44.8778L88.3407 44.8822Z" fill="#234360"/>
<path d="M76.3337 74.6596C76.36 84.5619 68.5211 92.4803 58.6477 92.5284C48.6776 92.5766 40.597 84.6495 40.5355 74.7648C40.4783 64.9194 48.5853 56.8697 58.5422 56.8828C68.42 56.896 76.3073 64.7793 76.3337 74.664V74.6596ZM70.4281 74.8348C70.4632 68.2216 65.1992 62.8478 58.6081 62.7603C52.0962 62.6727 46.5817 68.0464 46.4718 74.5896C46.3619 81.0539 51.8369 86.5984 58.3621 86.6291C65.0278 86.6598 70.3973 81.4174 70.4281 74.8392V74.8348Z" fill="#3FD6C5"/>
<path d="M94.0124 74.2827C102.251 74.2214 109.071 80.909 109.062 89.0332C109.053 97.1311 102.405 103.788 94.2848 103.832C86.0152 103.876 79.3538 97.3457 79.2396 89.077C79.1298 81.093 85.8746 74.3353 94.0124 74.2783V74.2827ZM85.2814 89.1865C85.3385 94.1048 89.3679 98.0377 94.276 97.9676C99.0919 97.9019 103.249 93.6537 103.112 88.9369C102.967 83.9879 99.0084 80.1864 94.0255 80.2214C89.0691 80.2565 85.2243 84.1937 85.2814 89.1865Z" fill="#3FD6C5"/>
<path d="M22.766 74.2866C30.9829 74.2603 37.6091 80.7553 37.6618 88.8838C37.7101 97.1788 31.1498 103.823 22.8978 103.831C14.6063 103.845 7.95372 97.2314 7.98448 89.0065C8.01524 80.8341 14.5667 74.3085 22.7704 74.2822L22.766 74.2866ZM22.7792 80.2166C17.8315 80.2341 13.8681 84.2108 13.9164 89.1072C13.9648 93.9905 18.0292 98.0109 22.8759 97.9671C27.7576 97.9233 31.765 93.8766 31.7474 89.0108C31.7299 84.1188 27.7313 80.1991 22.7792 80.2166Z" fill="#3FD6C5"/>
</g>
<defs>
<clipPath id="clip0_4378_4629">
<rect width="117" height="148" fill="white"/>
</clipPath>
</defs>
</svg>
