<svg width="50" height="50" viewBox="0 0 50 50" fill="none" xmlns="http://www.w3.org/2000/svg">
<g clip-path="url(#clip0_4378_4490)">
<path d="M33.2675 16.6914C34.39 16.6914 35.4508 16.6914 36.5055 16.6914C39.6324 16.6914 42.7655 16.6914 45.8924 16.6914C48.2793 16.6914 50 18.4034 50 20.7782C50 23.5826 50 26.3931 50 29.1975C50 31.6275 48.2854 33.3396 45.8493 33.3396C41.8527 33.3396 37.8562 33.3396 33.8596 33.3396H33.2614C33.2614 33.5421 33.2614 33.7078 33.2614 33.8796C33.2614 37.9726 33.2799 42.0657 33.2429 46.1587C33.2244 48.2881 31.516 49.951 29.3758 49.9756C26.4524 50.0124 23.529 50.0124 20.6056 49.9756C18.4224 49.9449 16.7386 48.196 16.7386 46.0114C16.7325 41.9736 16.7386 37.942 16.7386 33.9042C16.7386 33.7323 16.7386 33.5605 16.7386 33.3396H16.165C12.1562 33.3396 8.14111 33.3396 4.13223 33.3396C1.75157 33.3396 0.012335 31.6275 0.00616751 29.2589C0 26.4422 0 23.6194 0 20.7967C0 18.4034 1.7269 16.6914 4.14457 16.6914C8.09794 16.6914 12.0513 16.6914 16.0047 16.6914C16.2267 16.6914 16.4426 16.6914 16.7386 16.6914C16.7386 16.3845 16.7386 16.0961 16.7386 15.8138C16.7386 11.911 16.7386 8.00824 16.7386 4.11158C16.7386 1.90858 18.3052 0.122868 20.5193 0.0615033C23.529 -0.0244073 26.545 -0.0244073 29.5547 0.0615033C31.6887 0.122868 33.2922 1.96381 33.2737 4.12385C33.2429 8.11256 33.2675 12.1074 33.2675 16.0961C33.2675 16.2679 33.2675 16.4398 33.2675 16.6852V16.6914Z" fill="#234360"/>
</g>
<defs>
<clipPath id="clip0_4378_4490">
<rect width="50" height="50" fill="white"/>
</clipPath>
</defs>
</svg>
