<svg width="48" height="65" viewBox="0 0 48 65" fill="none" xmlns="http://www.w3.org/2000/svg">
<g clip-path="url(#clip0_4378_4528)">
<path d="M21.5551 58.6201C21.6265 59.5954 21.6978 60.6293 21.781 61.6633C21.9237 63.4375 21.4243 64.4245 20.1402 64.8593C18.8442 65.3058 17.6909 64.7653 16.7872 63.2026C14.005 58.4204 12.5544 53.2505 12.5306 47.7515C12.5187 45.3428 12.0312 43.1691 11.0563 40.9601C8.83282 35.9195 7.73894 30.6203 9.08251 25.1684C10.6639 18.7177 16.3592 15.1458 22.9106 16.497C26.5252 17.2373 29.9971 17.3548 33.5997 16.497C41.2331 14.6875 47.5824 20.4802 47.9748 27.8708C48.2363 32.7823 47.2138 37.4587 45.1687 41.9706C44.5267 43.3806 44.1581 45.0138 44.1343 46.5531C44.0629 52.1577 42.8858 57.4451 40.2344 62.4036C40.0084 62.8148 39.7706 63.2261 39.521 63.6255C38.8076 64.73 37.8207 65.2588 36.489 64.8828C35.2524 64.5303 34.7293 63.4963 34.7293 62.0158C34.7174 59.2546 34.8839 56.4582 34.4201 53.7557C34.0634 51.6995 33.1479 49.5963 31.9708 47.8338C29.9376 44.7553 26.8224 44.8141 24.5871 47.7515C22.1615 50.9475 21.6859 54.7192 21.5551 58.6201Z" fill="#3FD6C5"/>
<path d="M0 14.1701C3.70969 13.3358 5.76666 11.0564 6.70597 7.46094C7.5026 11.1386 9.64281 13.3946 13.4833 14.1583C9.8925 14.8516 7.43126 16.614 6.7892 20.468C6.09958 16.6493 3.66213 14.8516 0 14.1701Z" fill="#3FD6C5"/>
<path d="M17.6682 0C18.3103 1.75072 19.3566 2.91396 21.2352 3.4662C19.5944 4.06544 18.2152 4.86443 17.7633 6.77965C17.1688 4.98192 15.9798 3.98319 14.125 3.5132C15.9204 2.87871 17.0856 1.76247 17.6682 0Z" fill="#3FD6C5"/>
</g>
<defs>
<clipPath id="clip0_4378_4528">
<rect width="48" height="65" fill="white"/>
</clipPath>
</defs>
</svg>
