<svg width="35" height="59" viewBox="0 0 35 59" fill="none" xmlns="http://www.w3.org/2000/svg">
<g clip-path="url(#clip0_4378_4542)">
<path d="M11.465 44.6167C16.2309 46.5298 23.6477 45.4554 28.0463 39.5013C29.6407 37.3444 30.5759 34.9145 30.8401 32.2383C31.1069 29.5408 30.6617 26.9586 29.5192 24.5009C28.3885 22.0697 26.6871 20.1129 24.4799 18.5468C26.3556 17.8036 26.8258 16.9994 26.5352 15.126C30.5534 17.3743 35.3351 23.6318 34.9837 31.6156C34.6429 39.3516 29.2986 47.2055 19.8145 49.2551C19.9267 49.381 20.0047 49.5002 20.1104 49.5837C22.1842 51.2239 24.258 52.8655 26.3463 54.4858C26.5524 54.6448 26.8562 54.7362 27.1191 54.7508C27.7769 54.7879 28.4387 54.7587 29.0991 54.764C30.4715 54.7746 31.3896 55.6173 31.3975 56.864C31.4054 58.1306 30.4623 58.9918 29.0542 58.9931C26.1258 58.9957 23.1986 58.9931 20.2702 58.9931C15.1187 58.9931 9.96713 59.0103 4.81693 58.9679C4.24762 58.9626 3.58848 58.7347 3.13409 58.3929C2.42477 57.859 2.27022 57.0256 2.57271 56.1737C2.87388 55.3245 3.50923 54.8608 4.40216 54.7733C4.68616 54.7455 4.98204 54.7216 5.25943 54.7693C6.72959 55.0224 7.84972 54.4249 8.93815 53.4829C10.5179 52.1169 12.2047 50.8755 13.9444 49.5016C13.6683 49.4327 13.4939 49.3943 13.3222 49.3466C11.8851 48.9411 10.4519 48.5251 9.0108 48.1343C8.49036 47.9925 7.95671 47.8508 7.42175 47.8216C6.49976 47.7699 5.57248 47.8243 4.64917 47.8017C3.74963 47.7792 3.23052 47.2347 3.25298 46.3934C3.27411 45.5984 3.8104 45.1043 4.68219 45.0817C4.94505 45.0751 5.20791 45.0817 5.64117 45.0817C5.41133 44.8154 5.27396 44.6419 5.12073 44.4842C4.03363 43.3581 2.93728 42.2398 1.86206 41.1031C1.71676 40.9494 1.67317 40.7003 1.58203 40.4963C1.78017 40.434 1.9783 40.3174 2.17644 40.3174C6.2937 40.3068 10.4096 40.3068 14.5269 40.3174C14.7211 40.3174 14.9152 40.4459 15.1081 40.5135C15.0249 40.7043 14.9852 40.9362 14.8518 41.0779C13.8995 42.0888 12.926 43.0798 11.9604 44.0788C11.7953 44.2497 11.6381 44.4272 11.4624 44.6167H11.465ZM16.8755 51.8864C18.2901 51.8758 19.4341 50.7337 19.4407 49.3254C19.4473 47.8958 18.2624 46.7047 16.8451 46.7167C15.4119 46.7286 14.2667 47.9104 14.2865 49.3558C14.3063 50.7735 15.4555 51.897 16.8755 51.8864Z" fill="#234360"/>
<path d="M25.7139 14.0098C24.0813 13.3447 22.9783 13.5474 22.2162 14.6073C21.4329 15.6951 21.6205 16.7894 22.8515 18.1779C21.3114 20.4196 19.7752 22.6772 18.2125 24.9163C17.8321 25.4608 17.1994 25.5523 16.6314 25.1707C15.3343 24.2989 14.0451 23.4139 12.7757 22.505C12.1324 22.0453 12.0954 21.4517 12.6013 20.7138C14.8178 17.4784 17.0369 14.2443 19.256 11.0103C20.7645 8.81227 22.2717 6.61296 23.7841 4.41629C24.4234 3.48622 24.9439 3.39348 25.8751 4.03605C27.0348 4.83628 28.1972 5.63121 29.3504 6.44072C29.9871 6.88721 30.1601 7.49666 29.7572 8.09683C28.4324 10.0709 27.0771 12.0238 25.7153 14.0111L25.7139 14.0098ZM24.6929 6.34268C24.6255 6.23536 24.5885 6.10023 24.5106 6.06975C24.4036 6.02868 24.2332 6.02206 24.15 6.083C24.0139 6.18369 23.9175 6.34401 23.8184 6.48842C20.9019 10.7373 17.9866 14.9889 15.0727 19.2392C14.9856 19.3664 14.8667 19.4882 14.8337 19.63C14.8033 19.7559 14.8376 20.001 14.9023 20.0235C15.0357 20.0699 15.226 20.0394 15.3607 19.9731C15.465 19.9215 15.5205 19.7704 15.5958 19.6618C18.5388 15.3771 21.4818 11.0911 24.4221 6.80507C24.5198 6.66198 24.5991 6.50697 24.6942 6.34268H24.6929Z" fill="#234360"/>
<path d="M8.253 37.0279C10.5633 37.0279 12.8735 37.0279 15.1851 37.0279C15.8548 37.0279 16.3435 37.3273 16.5298 37.9805C16.6989 38.5727 16.5047 39.0894 15.9737 39.4074C15.7425 39.5465 15.4361 39.6194 15.164 39.6194C10.587 39.6326 6.01011 39.6326 1.43185 39.626C0.57723 39.626 -0.00661009 39.0696 -5.57206e-06 38.3157C0.00659895 37.5526 0.569304 37.0345 1.45299 37.0306C3.71966 37.02 5.98633 37.0266 8.253 37.0253V37.0279Z" fill="#234360"/>
<path d="M11.2499 25.9826C11.662 25.3864 12.016 24.8551 12.3872 24.3384C12.8271 23.7276 13.2867 23.6389 13.9168 24.0403C14.2695 24.2656 14.6142 24.504 14.9498 24.7544C15.4953 25.1612 15.5864 25.6686 15.206 26.2542C14.8467 26.8067 14.461 27.3419 14.0647 27.9143C14.3461 28.125 14.6037 28.2892 14.8282 28.492C15.21 28.8351 15.2734 29.2591 14.9775 29.6764C14.679 30.0964 14.2338 30.1931 13.8125 29.9109C12.3304 28.9186 10.8602 27.9063 9.4046 26.8743C8.97002 26.5656 8.87888 26.0979 9.19854 25.6487C9.51423 25.2049 9.95409 25.1479 10.4204 25.4341C10.6806 25.5944 10.9316 25.7706 11.2499 25.98V25.9826Z" fill="#234360"/>
<path d="M32.9528 4.28981C32.8312 4.79724 32.5248 5.02777 32.1655 4.79724C31.7151 4.50709 31.3399 4.63958 30.9252 4.77604C30.7997 4.81712 30.661 4.82639 30.5461 4.88469C29.3718 5.48619 28.3534 5.28083 27.3878 4.39315C27.0589 4.09108 26.8145 3.83802 26.8 3.37431C26.7815 2.78076 26.73 2.18588 26.652 1.59763C26.6164 1.33133 26.446 1.0849 26.3984 0.818598C26.3575 0.588067 26.3126 0.25287 26.4354 0.12833C26.5635 -0.00150876 26.9625 -0.0452301 27.1183 0.0594362C28.9795 1.30748 30.8195 2.58733 32.6556 3.87114C32.7995 3.97184 32.8735 4.17454 32.9528 4.28981Z" fill="#234360"/>
<path d="M25.6898 16.0616C25.6726 16.899 24.9884 17.5521 24.1522 17.5283C23.357 17.5044 22.7019 16.8301 22.6992 16.0312C22.6966 15.2111 23.3927 14.5195 24.2143 14.5274C25.0399 14.5354 25.7056 15.227 25.6898 16.0616Z" fill="#234360"/>
<path d="M18.4825 49.2962C18.4918 50.2064 17.7785 50.9311 16.871 50.9364C15.9583 50.9417 15.2397 50.2315 15.2344 49.3213C15.2291 48.4125 15.9437 47.6825 16.8459 47.6758C17.7507 47.6692 18.4746 48.3846 18.4825 49.2962Z" fill="#234360"/>
</g>
<defs>
<clipPath id="clip0_4378_4542">
<rect width="35" height="59" fill="white"/>
</clipPath>
</defs>
</svg>
