<svg width="64" height="73" viewBox="0 0 64 73" fill="none" xmlns="http://www.w3.org/2000/svg">
<g clip-path="url(#clip0_4378_4539)">
<path d="M22.2589 42.5149C22.2589 43.3655 22.2589 44.2161 22.2589 45.0667C22.2817 48.6134 22.1982 52.1678 22.3651 55.7145C22.7141 62.9826 28.8516 69.0887 36.1119 69.5444C43.8881 70.0304 50.4429 64.9952 51.945 57.3625C52.1195 56.4663 52.1802 55.5398 52.1878 54.6284C52.2181 51.3096 52.1878 47.9907 52.2105 44.6718C52.2105 44.1858 52.0816 44.0035 51.596 43.8896C46.8393 42.7504 43.5771 38.4746 43.7971 33.7279C44.0247 28.8065 47.6131 24.8193 52.4837 24.0827C57.6425 23.3004 62.7634 26.8699 63.78 31.9507C64.8573 37.3505 61.671 42.5377 56.4211 43.8212C55.7003 43.9959 55.5334 44.2617 55.541 44.968C55.5865 48.1426 55.5638 51.3171 55.5562 54.4917C55.5334 63.6585 49.2139 71.1772 40.2086 72.7493C30.2248 74.4961 20.3699 67.266 19.1029 57.203C18.8829 55.4486 18.9132 53.6639 18.8905 51.8943C18.8601 48.9932 18.8829 46.092 18.8753 43.1908C18.8753 42.9858 18.8753 42.7731 18.8753 42.5301C18.3063 42.401 17.7601 42.3023 17.229 42.158C13.8606 41.2618 11.1446 39.3024 8.74729 36.8493C8.42865 36.5227 8.08726 36.2038 7.82932 35.8316C7.58655 35.4823 7.26791 35.057 7.28309 34.6772C7.30585 33.8114 6.80514 33.2494 6.38029 32.6191C2.79186 27.2496 0.485552 21.4245 0.0379469 14.969C-0.0834376 13.2375 0.0758796 11.4603 0.311062 9.73631C0.81936 6.0529 3.05739 3.81247 6.54719 2.7644C7.90518 2.36189 9.28593 2.04291 10.6439 1.64039C10.9853 1.54166 11.3495 1.31382 11.5847 1.04041C12.4495 0.0303219 13.7544 -0.28106 14.9151 0.30373C16.0455 0.880925 16.6221 2.14924 16.3111 3.36438C15.9924 4.60231 14.8393 5.45292 13.5572 5.36938C13.2537 5.34659 12.9199 5.28584 12.6619 5.12635C12.2143 4.84534 11.7895 4.84534 11.3039 4.98205C10.1205 5.31621 8.9066 5.55165 7.73828 5.92379C4.77194 6.86553 3.70983 8.3237 3.4443 11.4375C3.04221 16.169 4.18778 20.5891 6.00855 24.8877C6.94928 27.1053 8.11002 29.2015 9.53629 31.1457C9.71078 31.3887 10.0446 31.5102 10.3101 31.6849C10.8032 32.0115 11.3798 32.2621 11.7819 32.6798C13.193 34.176 14.6875 35.5506 16.5387 36.4923C19.4519 37.9809 22.312 37.8442 25.1342 36.2265C26.7805 35.2848 28.1385 33.9937 29.4358 32.6267C29.8606 32.1862 30.4979 31.9507 31.0289 31.609C31.2262 31.4799 31.4765 31.3811 31.6055 31.1989C35.2167 25.9813 37.5458 20.3005 37.7961 13.8906C37.8492 12.5691 37.6823 11.2249 37.4775 9.91099C37.212 8.24776 36.2561 6.98704 34.6629 6.42504C32.9256 5.80227 31.1124 5.36938 29.3296 4.88332C29.1475 4.83016 28.8895 4.95167 28.6999 5.0504C27.4405 5.71114 25.9535 5.32381 25.2025 4.11626C24.4514 2.9087 24.7776 1.32142 25.9384 0.501192C27.0991 -0.311438 28.6771 -0.113977 29.5116 1.03282C29.8303 1.46572 30.202 1.6252 30.68 1.73912C32.0683 2.09607 33.4642 2.44543 34.8374 2.87073C38.6838 4.0555 40.5652 6.78199 40.9976 10.6932C41.6425 16.5487 40.2542 22.0245 37.781 27.2496C36.7947 29.3306 35.4746 31.252 34.3215 33.257C34.1546 33.5456 34.0863 33.895 33.9801 34.2139C33.8056 34.7 33.7601 35.2848 33.449 35.6493C30.8772 38.6796 27.8578 41.0719 23.9431 42.1428C23.4045 42.2871 22.8507 42.3934 22.2513 42.5301L22.2589 42.5149ZM53.8948 40.8289C57.6273 40.8289 60.6164 37.8214 60.6316 34.0469C60.6468 30.4014 57.6046 27.356 53.9403 27.3332C50.2532 27.318 47.1807 30.3559 47.1655 34.0317C47.1503 37.7607 50.1774 40.8213 53.9023 40.8289H53.8948Z" fill="#3FD6C5"/>
<path d="M58.9549 34.138C58.8867 37.0012 56.6031 39.2112 53.7961 39.1277C50.9511 39.0442 48.8042 36.7658 48.8724 33.9026C48.9407 31.1305 51.2622 28.966 54.092 29.042C56.8155 29.1103 59.0232 31.4267 58.9549 34.1304V34.138Z" fill="#3FD6C5"/>
</g>
<defs>
<clipPath id="clip0_4378_4539">
<rect width="64" height="73" fill="white"/>
</clipPath>
</defs>
</svg>
