<svg width="51" height="51" viewBox="0 0 51 51" fill="none" xmlns="http://www.w3.org/2000/svg">
<g clip-path="url(#clip0_4378_4550)">
<path d="M48.2214 40.5052C48.2214 38.6511 48.2214 36.8951 48.2214 35.1391C48.2214 34.8129 48.2336 34.4819 48.1993 34.1581C48.1452 33.6505 47.8678 33.3022 47.3326 33.3169C46.7998 33.3316 46.5371 33.6872 46.4953 34.1949C46.4683 34.5186 46.4806 34.8473 46.4806 35.1759C46.4806 36.9295 46.4806 38.6806 46.4806 40.5199H43.3821C43.3821 39.9068 43.3821 39.3452 43.3821 38.786C43.3821 38.2955 43.3944 37.805 43.3772 37.3145C43.3477 36.5052 43.0138 36.0392 42.4859 36.1128C41.8378 36.2035 41.6413 36.6793 41.6413 37.2704C41.6413 38.3274 41.6413 39.3869 41.6413 40.5248H38.7442C38.7442 39.5561 38.7442 38.6291 38.7442 37.6996C38.7442 36.5959 38.7565 35.4923 38.7417 34.3887C38.7294 33.4273 38.4569 33.0373 37.8627 33.0594C37.2784 33.0815 37.0255 33.4616 37.0132 34.4402C36.9961 35.9926 37.0132 37.5475 37.0034 39.0999C37.0034 39.458 36.9666 39.8161 36.9396 40.3164C35.9158 40.1177 34.9754 39.9387 33.9491 39.74C33.9491 38.6364 33.954 37.6211 33.9467 36.6033C33.9467 36.2771 33.9589 35.9411 33.8828 35.6296C33.7723 35.1808 33.4212 34.8816 32.9768 35.0239C32.6871 35.1146 32.3188 35.4359 32.2673 35.7057C32.1519 36.2967 32.2108 36.9246 32.2059 37.5377C32.201 38.0625 32.2059 38.5874 32.2059 39.3109C31.0937 39.0215 30.1288 38.7713 29.1 38.504C29.1 36.4659 29.1025 34.5088 29.1 32.5493C29.1 32.1839 29.1663 31.7694 29.0215 31.4628C28.8938 31.1881 28.5181 30.8693 28.2481 30.8669C27.9731 30.8644 27.6048 31.1685 27.4452 31.4383C27.2979 31.6909 27.3568 32.0735 27.3568 32.3972C27.3495 34.1925 27.3544 35.9852 27.3544 37.9546C26.2937 37.6407 25.346 37.3587 24.2902 37.0447C24.2902 35.9166 24.2976 34.8252 24.2902 33.7338C24.2804 32.6253 23.976 32.1348 23.3524 32.1814C22.7803 32.2255 22.5421 32.6572 22.5323 33.7289C22.5225 34.5775 22.5323 35.4261 22.5323 36.309C22.2917 36.309 22.1714 36.336 22.0683 36.3041C21.2482 36.0539 20.4306 35.7939 19.4755 35.4947C19.4755 34.8914 19.4755 34.293 19.4755 33.6921C19.4755 32.098 19.4706 30.5039 19.4755 28.9097C19.4755 28.3138 19.284 27.8429 18.6383 27.7473C18.1104 27.6688 17.7471 28.1372 17.7372 28.9416C17.7151 30.4548 17.7299 31.9656 17.7299 33.4788C17.7299 33.8834 17.7299 34.2881 17.7299 34.8914C16.6422 34.5701 15.6896 34.2906 14.624 33.9742C14.624 33.0569 14.624 32.1667 14.624 31.2764C14.624 30.9502 14.6216 30.6216 14.624 30.2954C14.6289 29.7093 14.4816 29.2188 13.7941 29.155C13.2417 29.1035 12.9103 29.5351 12.8833 30.3469C12.8612 31.041 12.8833 31.7375 12.8759 32.4316C12.871 32.7111 12.8342 32.9907 12.8047 33.388C12.2768 33.2654 11.8103 33.1649 11.3512 33.0471C10.8798 32.927 10.4133 32.7872 9.81177 32.6179C9.81177 31.8111 9.81177 31.0042 9.81177 30.1998C9.81177 28.8092 9.83141 27.4211 9.79949 26.0305C9.7823 25.3291 9.38947 24.9269 8.87141 24.9882C8.25024 25.0642 8.09802 25.5204 8.09556 26.0526C8.08574 27.605 8.09065 29.1599 8.0882 30.7123C8.0882 31.1513 8.0882 31.5928 8.0882 32.1789C6.98826 31.9778 6.04054 31.8037 4.99707 31.6124C4.99707 30.6191 4.99707 29.6847 4.99707 28.7503C4.99707 28.4242 5.01425 28.0931 4.97742 27.7693C4.92095 27.2666 4.64597 26.9208 4.10582 26.9232C3.56321 26.9257 3.29314 27.2764 3.26613 27.7865C3.23667 28.3972 3.2514 29.0128 3.24894 29.6259C3.24894 30.1483 3.24894 30.6731 3.24894 31.3426C2.45099 31.2445 1.76598 31.2151 1.10798 31.0631C0.445072 30.9085 0.071877 30.4107 0.0424142 29.724C-0.0877128 26.5921 0.241288 23.5167 1.35842 20.5663C1.69969 19.6613 2.27422 19.3768 3.31032 19.5142C6.96861 19.9924 10.5385 20.8778 14.0618 21.9495C19.3773 23.5682 24.6684 25.2776 29.9962 26.8545C35.1203 28.3702 40.3425 29.2727 45.7219 28.998C46.8636 28.9392 48.0127 28.9735 49.1593 28.9956C50.5661 29.0226 50.9933 29.4444 51.0031 30.8423C51.0203 33.4175 51.0154 35.9926 51.008 38.5677C51.0031 40.2109 50.5244 40.6548 48.8573 40.596C48.7001 40.5911 48.5454 40.5469 48.2385 40.4979L48.2214 40.5052Z" fill="#3FD6C5"/>
<path d="M19.5545 17.6385C19.7116 15.75 19.8418 14.1804 19.9817 12.5323C15.9723 12.0541 12.7044 10.3226 10.394 7.00438C8.96265 4.94672 8.21626 2.66343 8.21135 0C11.3221 0.0343352 13.9762 1.00308 16.3136 2.86699C18.6583 4.73825 20.0676 7.20793 20.8067 10.2834C21.0497 9.86401 21.197 9.63102 21.3296 9.38577C22.9845 6.3005 25.5895 4.38755 28.8574 3.29372C29.0513 3.22996 29.2502 3.17355 29.4491 3.14167C29.8935 3.06809 30.2937 3.15884 30.4459 3.62972C30.6178 4.15946 30.3403 4.48074 29.8517 4.66223C29.2011 4.90503 28.5357 5.12085 27.9072 5.40779C22.7217 7.77201 21.0988 12.5691 21.2805 16.9837C21.2879 17.1333 21.3714 17.278 21.4819 17.609C21.9631 17.2191 22.3412 16.8855 22.7463 16.5863C23.9911 15.6666 25.1549 14.5925 26.5102 13.8837C30.1144 12.0026 33.9274 12.6697 36.7116 15.6201C39.5351 18.6121 40.64 22.3301 40.9248 26.3424C40.9297 26.4136 40.8585 26.4871 40.7284 26.7594C40.1465 26.7152 39.4639 26.7373 38.8133 26.6024C36.0536 26.0334 33.262 25.5625 30.5588 24.7875C25.2187 23.2523 19.9522 21.457 14.6097 19.9291C11.3148 18.9874 7.93391 18.3448 4.5948 17.5624C4.18477 17.4668 3.78703 17.3172 3.28125 17.1602C3.4924 16.7605 3.58815 16.4931 3.75265 16.2773C6.10722 13.1945 10.0086 12.0884 13.6423 13.4545C15.4371 14.1289 16.9446 15.2276 18.3023 16.5594C18.6387 16.888 19.0144 17.1749 19.5545 17.636V17.6385Z" fill="#3FD6C5"/>
<path d="M26.5274 50.9782C24.6221 50.9708 23.1711 50.5441 21.9017 49.6685C20.9663 49.0235 20.1782 48.9941 19.2133 49.6268C16.6451 51.3142 13.9124 51.3804 11.1356 50.1811C8.33659 48.9696 6.30121 46.8653 4.61447 44.3981C2.62573 41.4894 1.39812 38.257 0.627176 34.8382C0.600169 34.718 0.585437 34.5954 0.573161 34.4752C0.465131 33.5114 0.66646 33.2269 1.62154 33.352C3.48506 33.5948 5.37559 33.7812 7.18264 34.2643C11.8795 35.5249 16.5592 36.8591 21.1995 38.306C25.9627 39.7923 30.716 41.2957 35.6142 42.2865C35.9334 42.3502 36.2624 42.4066 36.5644 42.5268C36.9965 42.7009 37.1757 43.0002 36.9965 43.5005C35.705 47.0959 30.0433 51.0174 26.5274 50.9782Z" fill="#3FD6C5"/>
</g>
<defs>
<clipPath id="clip0_4378_4550">
<rect width="51" height="51" fill="white"/>
</clipPath>
</defs>
</svg>
