<svg width="64" height="47" viewBox="0 0 64 47" fill="none" xmlns="http://www.w3.org/2000/svg">
<g clip-path="url(#clip0_4378_4482)">
<path d="M27.4963 30.3551C24.1943 34.7323 21.182 39.0436 17.8368 43.066C14.4577 47.1292 7.9954 47.4275 3.87014 44.0425C-0.406183 40.532 -1.27563 34.5408 1.94934 30.0223C4.96466 25.7958 8.09097 21.651 11.245 17.3711C16.6775 21.7106 21.9898 25.9559 27.4994 30.3583L27.4963 30.3551Z" fill="#234360"/>
<path d="M12.2227 16.0393C15.5555 11.6841 18.6325 7.43246 21.9592 3.3881C25.2705 -0.637421 31.48 -1.09587 35.6238 2.12581C39.8538 5.41342 41.0408 11.436 38.0749 15.8163C35.078 20.2407 31.8284 24.486 28.5603 28.9888C23.0969 24.6587 17.7723 20.4385 12.2227 16.0393Z" fill="#234360"/>
<path d="M63.9583 31.5635C63.9583 34.2042 63.9614 36.8168 63.9583 39.4293C63.9583 40.8925 63.1166 41.8408 62.0283 42.6289C59.4477 44.4973 56.4663 45.2729 53.4232 45.791C42.7093 47.6153 32.0632 47.54 21.5496 44.4125C19.6843 43.8567 19.6042 43.6463 20.7696 42.0543C22.4252 39.7904 24.1456 37.5735 25.7951 35.3033C26.3193 34.5842 26.8526 34.4083 27.7406 34.5559C37.7855 36.2296 47.7965 35.9344 57.7242 33.6736C59.7961 33.2026 61.7786 32.3139 63.9583 31.5635Z" fill="#234360"/>
<path d="M30.6953 32.9579C32.7117 31.9939 34.7188 31.0016 36.7506 30.069C42.2201 27.5633 47.6835 25.045 53.193 22.6366C54.044 22.2661 55.1971 22.2095 56.0974 22.4482C57.8209 22.9035 59.5043 23.5849 61.1198 24.3542C61.9245 24.7373 62.6552 25.4249 63.2256 26.1346C64.4157 27.6261 64.2616 29.0768 62.5627 29.9058C60.5094 30.9074 58.2987 31.661 56.085 32.2262C49.5673 33.8842 37.5769 34.3018 30.6953 32.9547V32.9579Z" fill="#234360"/>
<path d="M51.1751 21.5594C43.4642 25.1234 36.1109 28.5209 28.7545 31.9215C28.6712 31.8367 28.588 31.7488 28.5078 31.664C29.6208 30.1757 30.7338 28.6873 31.8469 27.2021C32.5313 26.2883 33.2004 25.362 33.9126 24.4671C37.6216 19.8073 35.9475 20.429 42.3573 20.63C44.9718 20.7116 47.5771 21.035 50.1885 21.258C50.3828 21.2737 50.5708 21.371 51.1782 21.5594H51.1751Z" fill="#234360"/>
</g>
<defs>
<clipPath id="clip0_4378_4482">
<rect width="64" height="47" fill="white"/>
</clipPath>
</defs>
</svg>
