<svg width="58" height="51" viewBox="0 0 58 51" fill="none" xmlns="http://www.w3.org/2000/svg">
<g clip-path="url(#clip0_4378_4532)">
<path d="M0 42.0105C0.0186017 41.8943 0.0248022 41.7843 0.0496044 41.6682C0.254223 40.6048 0.886679 39.8959 1.93457 39.5781C2.2136 39.4925 2.52363 39.4987 2.81505 39.4742C4.79303 39.3153 6.76481 39.1564 8.74278 39.0036C10.5657 38.857 12.3825 38.7164 14.2055 38.5758C15.551 38.4719 16.8965 38.3619 18.242 38.2519C18.9613 38.1969 19.6806 38.1358 20.3998 38.0808C20.4246 38.0808 20.4556 38.0747 20.5052 38.0686C20.4494 37.983 20.406 37.9097 20.3564 37.8363C19.2403 36.174 18.1304 34.5178 17.0205 32.8555C16.9647 32.77 16.9027 32.7455 16.8035 32.7455C13.8396 32.7455 10.8758 32.7455 7.91191 32.7455C6.39277 32.7455 5.20847 31.511 5.27667 30.0198C5.33868 28.7914 6.33077 27.7158 7.56468 27.5875C8.06692 27.5324 8.57537 27.5508 9.07761 27.5508C11.6756 27.5508 14.2799 27.5508 16.8779 27.5508C16.9399 27.5508 16.9957 27.5508 17.0763 27.5508C16.9833 27.7097 16.9027 27.838 16.8345 27.9725C16.4439 28.7609 16.4005 29.5859 16.6113 30.4232C16.9957 31.9388 18.0312 32.8127 19.5255 33.1916C20.2758 33.3811 21.0199 33.32 21.7516 33.0511C22.508 32.77 23.2769 32.5011 24.0334 32.2199C24.1264 32.1833 24.1822 32.1955 24.2566 32.2688C25.3851 33.3628 26.526 34.4567 27.6545 35.5507C27.7537 35.6484 27.8591 35.6912 28.0017 35.6912C32.9932 35.6912 37.9908 35.6851 42.9823 35.6912C45.1772 35.6912 47.118 37.3597 47.4405 39.5048C47.7877 41.7843 46.4298 43.8989 44.1976 44.5528C43.7945 44.6689 43.3791 44.7362 42.9574 44.7362C37.5134 44.7362 32.0755 44.7362 26.6314 44.7362C25.3975 44.7362 24.486 43.74 24.6162 42.5299C24.7154 41.601 25.5525 40.831 26.5074 40.8065C26.9724 40.7943 27.4313 40.8065 27.8963 40.8065C29.9983 40.8065 32.1065 40.8065 34.2085 40.8065C34.7665 40.8065 35.3122 40.7576 35.864 40.6415C37.842 40.2198 39.8262 39.8226 41.8041 39.4131C41.8475 39.4009 41.891 39.3948 41.953 39.3764C41.8289 38.7897 41.7049 38.2153 41.5809 37.6286C41.2027 37.708 40.8369 37.7813 40.4772 37.8547C38.6419 38.2336 36.8127 38.6064 34.9773 38.9853C34.8967 39.0036 34.8099 39.0097 34.7231 39.0097C32.0197 39.0097 29.3162 39.0097 26.6066 39.0097C24.8456 39.0097 23.3327 40.1587 22.8987 41.8393C22.6506 42.7927 22.7808 43.7033 23.2583 44.565C23.2831 44.6139 23.3079 44.6628 23.3513 44.7301C23.2769 44.7301 23.2273 44.7301 23.1777 44.7301C16.3757 44.7301 9.57366 44.7301 2.77165 44.7301C1.33932 44.7301 0.310028 43.7706 0.0744067 42.6399C0.0434039 42.4933 0.0248022 42.3405 0 42.1877C0 42.1327 0 42.0777 0 42.0227L0 42.0105Z" fill="#234360"/>
<path d="M1.75432 51.0002C1.69852 50.988 1.64891 50.9757 1.59311 50.9635C0.780835 50.823 0.247587 50.3035 0.0925732 49.4846C0.067771 49.3379 0.0491693 49.1912 0.0491693 49.0384C0.0429687 48.4701 0.0429688 47.9017 0.0429688 47.3333C0.0429688 46.9055 0.309593 46.5938 0.756033 46.5083C0.911047 46.4777 1.07226 46.4716 1.23348 46.4716C15.4017 46.4716 29.57 46.4655 43.7383 46.4777C45.183 46.4777 46.4603 46.0744 47.6012 45.2371C48.1655 44.8215 48.7173 44.3815 49.2816 43.9598C49.4738 43.8192 49.6784 43.697 49.8892 43.5809C50.2055 43.4098 50.5403 43.3242 50.9061 43.3242C52.6361 43.3242 54.3598 43.3242 56.0898 43.3242C56.6168 43.3242 57.0943 43.4648 57.4539 43.862C57.7143 44.1493 57.8694 44.4793 57.8694 44.8826C57.8632 46.2822 57.8694 47.6817 57.8694 49.0812C57.8694 49.7107 57.6523 50.2607 57.1191 50.6457C56.8711 50.823 56.5796 50.9146 56.282 50.9574C56.2386 50.9635 56.189 50.9757 56.1456 50.988H1.75432V51.0002Z" fill="#234360"/>
<path d="M27.7856 0C27.9654 0.0183343 28.1514 0.0305572 28.3313 0.055003C30.7619 0.317795 32.7522 2.29179 33.0313 4.68137C33.3227 7.18095 31.8346 9.42996 29.5838 10.2794C27.2214 11.1717 24.4249 10.2489 23.098 8.116C21.7773 5.9831 22.0873 3.31851 23.8731 1.56453C24.8651 0.59281 26.0742 0.0794488 27.4694 0.0244458C27.5066 0.0244458 27.5438 0.0122229 27.581 0.00611144C27.6492 0.00611144 27.7112 0.00611144 27.7794 0.00611144L27.7856 0Z" fill="#234360"/>
<path d="M58.0005 37.1824C57.9571 37.4513 57.9261 37.7263 57.8641 37.9891C57.4053 39.9264 55.7497 41.3871 53.747 41.6254C51.1861 41.9371 48.8609 40.2748 48.3649 37.7691C47.8626 35.2328 49.574 32.7149 52.1534 32.2077C54.7143 31.7065 57.1697 33.2038 57.8393 35.6851C57.9137 35.954 57.9323 36.2351 57.9819 36.5101C57.9819 36.5346 57.9943 36.5651 58.0067 36.5896C58.0067 36.7852 58.0067 36.9807 58.0067 37.1763L58.0005 37.1824Z" fill="#234360"/>
<path d="M29.6623 19.2021C29.1476 19.0127 28.6392 18.8293 28.1245 18.6399C28.0439 18.8355 27.9633 19.0188 27.8889 19.2021C27.3123 20.565 26.7356 21.934 26.1589 23.2968C26.1217 23.3885 26.0721 23.4374 25.9791 23.474C24.1128 24.1463 22.2526 24.8247 20.3862 25.4969C20.349 25.5092 20.3056 25.5214 20.2498 25.5397V19.7461C20.2498 19.7461 20.225 19.7338 20.2126 19.7216C20.1878 19.7583 20.163 19.795 20.132 19.8316C18.3028 21.8056 16.4675 23.7796 14.6383 25.7475C14.5763 25.8147 14.5143 25.8575 14.4089 25.8575C12.3441 25.8575 10.2731 25.8514 8.20834 25.8514C8.17733 25.8514 8.14633 25.8514 8.07812 25.8453C8.11533 25.7964 8.14013 25.7597 8.17113 25.7292C9.43605 24.3602 10.701 22.9912 11.9659 21.6284C14.4957 18.8966 17.0317 16.1648 19.5616 13.4268C20.225 12.7118 21.0559 12.3207 22.0046 12.1495C22.4138 12.0762 22.8354 12.0334 23.2571 12.0334C25.7187 12.0212 28.1741 12.0273 30.6357 12.0334C31.5906 12.0334 32.4773 12.2534 33.2586 12.8218C34.0523 13.4024 34.5235 14.1908 34.7777 15.1136C35.1063 16.342 34.9637 17.5215 34.4615 18.6949C33.2462 21.5184 32.0805 24.3663 30.89 27.202C30.6419 27.7887 30.2203 28.2043 29.6127 28.4304C26.8782 29.4205 24.1376 30.4105 21.4093 31.4128C20.8699 31.6145 20.3366 31.6939 19.7848 31.5106C18.9663 31.2417 18.371 30.4655 18.3524 29.6344C18.3338 28.7116 18.8485 27.9232 19.6918 27.6115C22.1782 26.6887 24.6646 25.7719 27.151 24.8491C27.2564 24.8125 27.3185 24.7513 27.3619 24.6474C28.1121 22.8812 28.8624 21.115 29.6127 19.3488C29.6313 19.306 29.6437 19.2633 29.6685 19.2083L29.6623 19.2021Z" fill="#234360"/>
<path d="M26.0117 31.486C26.39 31.3455 26.7434 31.2171 27.103 31.0888C28.1881 30.6915 29.2732 30.3004 30.3521 29.8971C31.276 29.5548 31.9208 28.9192 32.3115 28.027C32.7889 26.9391 33.254 25.8452 33.7252 24.7573C34.0848 23.9201 34.4445 23.0767 34.8103 22.2394C34.8289 22.1966 34.8475 22.1539 34.8909 22.1172V33.0506C34.8475 33.0506 34.7979 33.0506 34.7545 33.0506C32.4169 33.0506 30.0793 33.0506 27.7479 33.0506C27.6487 33.0506 27.5805 33.0261 27.5123 32.9589C27.0472 32.4944 26.576 32.0422 26.1047 31.5838C26.0799 31.5594 26.0613 31.5349 26.0179 31.4921L26.0117 31.486Z" fill="#234360"/>
</g>
<defs>
<clipPath id="clip0_4378_4532">
<rect width="58" height="51" fill="white"/>
</clipPath>
</defs>
</svg>
