<svg width="186" height="51" viewBox="0 0 186 51" fill="none" xmlns="http://www.w3.org/2000/svg">
<g clip-path="url(#clip0_4378_4510)">
<path d="M51.1168 20.2035C49.9208 20.2035 48.9082 20.645 48.0756 21.5281C47.2429 22.4323 46.8266 23.5096 46.8266 24.7529C46.8266 26.5189 47.6169 27.8435 49.1975 28.7265C49.6879 28.9985 51.5367 29.5883 54.7402 30.4925C57.1323 31.2166 58.8822 32.1456 59.9936 33.2758C61.5742 34.8617 62.3645 37.1576 62.3645 40.167C62.3645 43.1763 61.3731 45.7124 59.3868 47.8422C57.3793 49.9473 54.966 50.9999 52.147 50.9999H43.7853C42.995 50.9999 42.3106 50.6926 41.7355 50.0816C41.1604 49.4917 40.8711 48.7676 40.8711 47.9093V47.8422C40.8711 46.9839 41.1604 46.2457 41.7355 45.6347C42.3106 45.0236 42.995 44.7163 43.7853 44.7163H52.4646C53.6606 44.7163 54.6732 44.2748 55.5058 43.3918C56.3385 42.5087 56.7548 41.435 56.7548 40.167C56.7548 38.4927 55.9645 37.2459 54.3839 36.4335C54.0205 36.2534 52.1753 35.6635 48.8412 34.6675C46.4703 33.9222 44.7203 32.9685 43.5878 31.8171C42.0072 30.1641 41.2169 27.8117 41.2169 24.7529C41.2169 21.6941 42.2083 19.2181 44.1946 17.1129C46.2021 14.9866 48.6154 13.9199 51.4343 13.9199H57.3299C58.1413 13.9199 58.8364 14.2272 59.4115 14.8383C59.9866 15.4493 60.2759 16.184 60.2759 17.0458V17.1129C60.2759 17.9748 59.9866 18.6989 59.4115 19.2852C58.8364 19.8962 58.1413 20.2035 57.3299 20.2035H51.1168Z" fill="#3FD6C5"/>
<path d="M84.0124 13.9199C88.8389 13.9199 92.9598 15.7319 96.375 19.3523C99.7903 22.9727 101.501 27.3419 101.501 32.4599C101.501 37.5779 99.7938 41.9436 96.375 45.5675C92.9598 49.1879 88.8354 50.9999 84.0124 50.9999C79.1895 50.9999 75.0651 49.1879 71.6498 45.5675C68.2346 41.9471 66.5234 37.5779 66.5234 32.4599C66.5234 27.3419 68.2311 22.9762 71.6498 19.3523C75.0651 15.7319 79.1895 13.9199 84.0124 13.9199ZM84.0124 20.2706C80.8089 20.2706 78.0746 21.4716 75.813 23.8699C73.5691 26.2681 72.4507 29.168 72.4507 32.5624C72.4507 35.9567 73.5727 38.8212 75.813 41.2195C78.0781 43.6178 80.8089 44.8187 84.0124 44.8187C87.216 44.8187 89.9397 43.6178 92.1801 41.2195C94.4451 38.8212 95.5741 35.9355 95.5741 32.5624C95.5741 29.1892 94.4416 26.2681 92.1801 23.8699C89.9397 21.4716 87.216 20.2706 84.0124 20.2706Z" fill="#3FD6C5"/>
<path d="M111.24 0C112.03 0 112.715 0.293164 113.29 0.883025C113.865 1.49408 114.154 2.22876 114.154 3.09059V47.9094C114.154 48.7712 113.865 49.4953 113.29 50.0817C112.715 50.6927 112.03 51 111.24 51H111.145C110.354 51 109.67 50.6927 109.095 50.0817C108.52 49.4918 108.23 48.7677 108.23 47.9094V3.09059C108.23 2.23229 108.52 1.49408 109.095 0.883025C109.67 0.293164 110.354 0 111.145 0H111.24Z" fill="#3FD6C5"/>
<path d="M135.713 42.2721C135.713 42.2509 135.756 42.3392 135.84 42.5441C135.967 42.8831 136.119 42.8831 136.289 42.5441L136.352 42.3392L147.085 15.8202C147.596 14.5522 148.496 13.9199 149.777 13.9199H149.84C150.884 13.9199 151.699 14.3826 152.275 15.3116C152.85 16.2405 152.938 17.2118 152.532 18.2326L140.618 47.7045C139.806 49.9014 138.289 50.9999 136.07 50.9999C133.851 50.9999 132.302 49.9014 131.49 47.7045L119.576 18.2326C119.17 17.2154 119.255 16.2405 119.833 15.3116C120.408 14.3826 121.22 13.9199 122.268 13.9199H122.363C123.644 13.9199 124.529 14.5522 125.023 15.8202C130.15 28.4757 133.713 37.2918 135.72 42.2721H135.713Z" fill="#3FD6C5"/>
<path d="M160.825 7.47083C159.841 7.47083 159.008 7.11056 158.327 6.38294C157.643 5.65886 157.301 4.77584 157.301 3.73387C157.301 2.6919 157.643 1.84419 158.327 1.12011C159.012 0.396033 159.845 0.0322266 160.825 0.0322266C161.806 0.0322266 162.607 0.396033 163.292 1.12011C163.997 1.84419 164.35 2.71662 164.35 3.73387C164.35 4.75111 163.997 5.65886 163.292 6.38294C162.607 7.10702 161.785 7.47083 160.825 7.47083ZM160.857 13.924C161.669 13.924 162.353 14.2313 162.907 14.8423C163.482 15.4534 163.771 16.1881 163.771 17.0499V47.9134C163.771 48.7752 163.482 49.4993 162.907 50.0856C162.353 50.6967 161.669 51.004 160.857 51.004H160.794C159.982 51.004 159.287 50.6967 158.712 50.0856C158.137 49.4958 157.848 48.7717 157.848 47.9134V17.0464C157.848 16.1881 158.137 15.4498 158.712 14.8388C159.287 14.2277 159.982 13.9204 160.794 13.9204H160.857V13.924Z" fill="#234360"/>
<path d="M174.411 0C175.202 0 175.886 0.293164 176.461 0.883025C177.036 1.49408 177.326 2.22876 177.326 3.09059V13.9235H183.091C183.881 13.9235 184.565 14.2308 185.141 14.8419C185.716 15.4529 186.005 16.1876 186.005 17.0495V17.1166C186.005 17.9784 185.716 18.7025 185.141 19.2888C184.565 19.8999 183.881 20.2071 183.091 20.2071H177.326V41.3609C177.326 42.2898 177.636 43.081 178.254 43.738C178.871 44.395 179.63 44.7235 180.529 44.7235H183.091C183.881 44.7235 184.565 45.0308 185.141 45.6418C185.716 46.2529 186.005 46.9875 186.005 47.8494V47.9165C186.005 48.7783 185.716 49.5024 185.141 50.0887C184.565 50.6998 183.881 51.0071 183.091 51.0071H180.529C178.01 51.0071 175.854 50.0675 174.059 48.1884C172.288 46.2882 171.398 44.0135 171.398 41.3644V3.09059C171.398 2.23229 171.688 1.49408 172.263 0.883025C172.838 0.293164 173.522 0 174.313 0H174.408H174.411Z" fill="#234360"/>
<path d="M44.8027 49.181C41.3593 48.849 37.3372 48.9479 34.2077 46.9134C33.1316 47.4467 31.7874 47.2631 30.8948 46.3659L29.3354 44.8047C26.6187 46.6308 23.3587 47.5138 20.0634 47.3019C13.7551 46.8922 10.361 42.7702 10.1529 42.6219C9.77888 42.2475 9.77888 41.6399 10.1529 41.2655L10.8373 40.5803L1.30428 31.0436C-0.195177 29.5425 -0.195177 27.1018 1.30428 25.6007L1.42424 25.4806C0.912659 24.4068 1.09965 23.0823 1.98521 22.1957C3.10716 21.0725 4.93827 21.0725 6.06021 22.1957C7.18216 23.3189 7.18216 25.1521 6.06021 26.2753C5.17465 27.1619 3.84807 27.3491 2.77904 26.8369L2.65909 26.957C1.90759 27.7093 1.90759 28.935 2.65909 29.6873L12.1851 39.224L12.8695 38.5388C13.2435 38.1644 13.8503 38.1644 14.2243 38.5388L14.563 38.8778C18.137 42.4559 23.9197 42.4523 27.4937 38.8778C31.0571 35.3104 31.0183 29.4648 27.416 25.855L27.155 25.5936C26.781 25.2192 26.781 24.6117 27.155 24.2373L27.8394 23.5521L18.3134 14.0154C17.562 13.263 16.3377 13.263 15.5862 14.0154L15.4662 14.1355C15.9778 15.2092 15.7908 16.5338 14.9053 17.4203C13.7833 18.5435 11.9522 18.5435 10.8303 17.4203C9.70831 16.2971 9.70831 14.464 10.8303 13.3408C11.7158 12.4542 13.0424 12.267 14.1114 12.7792L14.2314 12.6591C15.7308 11.1579 18.1688 11.1579 19.6683 12.6591L29.1942 22.1957L29.8787 21.5105C30.2527 21.1361 30.8595 21.1361 31.2335 21.5105L31.5722 21.8496C36.6174 26.9005 37.3689 34.8195 33.4104 40.7145L34.9698 42.2757C35.8448 43.1517 36.0388 44.4586 35.5484 45.5253C37.8452 47.5845 43.0069 47.2383 44.8027 47.5633M13.5469 14.7006C13.1694 14.3227 12.559 14.3227 12.1815 14.7006C11.804 15.0785 11.804 15.6896 12.1815 16.0675C12.559 16.4455 13.1694 16.4455 13.5469 16.0675C13.9244 15.6896 13.9244 15.0785 13.5469 14.7006ZM3.34002 24.919C3.71753 25.2969 4.3279 25.2969 4.70541 24.919C5.08292 24.541 5.08292 23.93 4.70541 23.5521C4.3279 23.1741 3.71753 23.1741 3.34002 23.5521C2.96251 23.93 2.96251 24.541 3.34002 24.919ZM28.8591 42.7843C29.2401 42.4947 29.7764 42.5336 30.1151 42.8691L32.2496 45.006C32.6271 45.384 33.2375 45.384 33.615 45.006C33.9925 44.6281 33.9925 44.017 33.615 43.6391L31.4805 41.5022C31.1418 41.1631 31.1065 40.6262 31.3958 40.2448C35.1921 35.2292 34.8004 28.1403 30.5455 23.5556L29.1766 24.926C33.1105 29.2917 33.0223 36.0274 28.8767 40.2059C24.5829 44.5045 17.8477 44.5115 13.554 40.5627L12.1886 41.9296C16.7681 46.1893 23.8491 46.5778 28.8591 42.7808V42.7843Z" fill="#3FD6C5"/>
<path d="M44.8027 49.181C41.3593 48.849 37.3372 48.9479 34.2077 46.9134C33.1316 47.4467 31.7874 47.263 30.8948 46.3659L29.3354 44.8047C26.6187 46.6308 23.3587 47.5138 20.0634 47.3019C13.7551 46.8922 10.361 42.7702 10.1529 42.6219C9.77887 42.2475 9.77887 41.6399 10.1529 41.2655L10.8373 40.5803L1.30428 31.0436C-0.195177 29.5425 -0.195177 27.1018 1.30428 25.6007L1.42424 25.4806C0.912659 24.4068 1.09965 23.0823 1.98521 22.1957C3.10716 21.0725 4.93827 21.0725 6.06021 22.1957C7.18216 23.3189 7.18216 25.1521 6.06021 26.2753C5.17465 27.1619 3.84807 27.3491 2.77904 26.8369L2.65909 26.957C1.90759 27.7093 1.90759 28.935 2.65909 29.6873L12.1851 39.224L12.8695 38.5388C13.2435 38.1644 13.8503 38.1644 14.2243 38.5388L14.563 38.8778C18.137 42.4559 23.9197 42.4523 27.4937 38.8778C31.0571 35.3104 31.0183 29.4648 27.416 25.855L27.155 25.5936C26.781 25.2192 26.781 24.6117 27.155 24.2373L27.8394 23.5521L18.3134 14.0154C17.562 13.263 16.3377 13.263 15.5862 14.0154L15.4662 14.1355C15.9778 15.2092 15.7908 16.5338 14.9053 17.4203C13.7833 18.5435 11.9522 18.5435 10.8303 17.4203C9.70831 16.2971 9.70831 14.464 10.8303 13.3408C11.7158 12.4542 13.0424 12.267 14.1114 12.7792L14.2314 12.6591C15.7308 11.1579 18.1688 11.1579 19.6683 12.6591L29.1942 22.1957L29.8787 21.5105C30.2527 21.1361 30.8595 21.1361 31.2335 21.5105L31.5722 21.8496C36.6174 26.9005 37.3689 34.8195 33.4104 40.7145L34.9698 42.2757C35.8448 43.1517 36.0388 44.4586 35.5484 45.5253C37.8452 47.5845 43.0069 47.2383 44.8027 47.5633M13.5469 14.7006C13.1694 14.3227 12.5591 14.3227 12.1815 14.7006C11.804 15.0785 11.804 15.6896 12.1815 16.0675C12.5591 16.4455 13.1694 16.4455 13.5469 16.0675C13.9244 15.6896 13.9244 15.0785 13.5469 14.7006ZM3.34002 24.919C3.71753 25.2969 4.3279 25.2969 4.70541 24.919C5.08292 24.541 5.08292 23.93 4.70541 23.5521C4.3279 23.1741 3.71753 23.1741 3.34002 23.5521C2.96251 23.93 2.96251 24.541 3.34002 24.919ZM28.8591 42.7843C29.2401 42.4947 29.7764 42.5336 30.1151 42.8691L32.2496 45.006C32.6271 45.384 33.2375 45.384 33.615 45.006C33.9925 44.6281 33.9925 44.017 33.615 43.6391L31.4805 41.5022C31.1418 41.1631 31.1065 40.6262 31.3958 40.2448C35.1921 35.2292 34.8004 28.1403 30.5455 23.5556L29.1766 24.926C33.1105 29.2917 33.0223 36.0274 28.8767 40.2059C24.5829 44.5045 17.8477 44.5115 13.554 40.5627L12.1886 41.9296C16.7681 46.1893 23.8491 46.5778 28.8591 42.7808V42.7843Z" stroke="#3FD6C5" stroke-width="0.5" stroke-miterlimit="10"/>
</g>
<defs>
<clipPath id="clip0_4378_4510">
<rect width="186" height="51" fill="white"/>
</clipPath>
</defs>
</svg>
