<svg width="83" height="69" viewBox="0 0 83 69" fill="none" xmlns="http://www.w3.org/2000/svg">
<g clip-path="url(#clip0_4378_4731)">
<path d="M41.1835 27.6291C47.3619 27.6291 53.5404 27.6215 59.7227 27.6291C61.9684 27.6291 62.0985 27.7745 62.11 30.0125C62.1176 31.604 62.0373 33.2032 62.1367 34.787C62.2171 36.0533 61.8575 37.0403 60.8475 37.7672C59.2445 38.9226 58.7854 40.449 58.9002 42.4001C59.0571 45.0666 58.9844 47.7484 58.9193 50.4226C58.8887 51.6506 59.1106 52.6874 60.155 53.4296C61.823 54.6155 62.3586 56.2223 62.1406 58.227C61.999 59.5506 62.0985 60.9011 62.1138 62.2363C62.1253 63.3036 61.7312 63.931 60.5605 63.9196C58.3952 63.8966 56.2184 64.0267 54.0684 63.8507C53.3071 63.7895 52.4386 63.1583 51.9069 62.5423C50.7285 61.1804 49.4125 60.6754 47.5877 60.7328C43.0695 60.8705 38.5437 60.8246 34.0218 60.7481C32.7593 60.7289 31.7723 61.0274 31.0492 62.0373C29.8901 63.6556 28.333 64.13 26.3972 63.9463C24.8822 63.8048 23.3405 63.9004 21.814 63.9157C20.7849 63.9272 20.2761 63.449 20.2761 62.4199C20.2761 60.3158 20.1843 58.2078 20.3258 56.1152C20.3679 55.4648 20.9035 54.6882 21.4468 54.2635C23.1224 52.9552 23.6083 51.3292 23.482 49.2596C23.3252 46.6581 23.394 44.0375 23.4667 41.4284C23.5012 40.1889 23.2334 39.1789 22.2081 38.4367C20.6281 37.289 20.016 35.7855 20.2417 33.8191C20.3985 32.4342 20.2532 31.0187 20.2799 29.6185C20.3105 27.8625 20.521 27.633 22.2769 27.6253C28.2641 27.6062 34.2552 27.6177 40.2423 27.6177C40.5599 27.6177 40.8812 27.6177 41.1988 27.6177L41.1835 27.6291ZM41.2409 32.4036C34.653 32.3692 29.2397 37.729 29.2894 44.2326C29.3353 50.6865 34.6722 55.9966 41.1376 56.0234C47.6068 56.0501 52.9513 50.8281 53.0852 44.3397C53.2191 37.8628 47.8363 32.4342 41.2409 32.4036Z" fill="#3FD6C5"/>
<path d="M56.0195 23.5505H50.7285C50.6788 22.8006 50.5985 22.1235 50.5908 21.4464C50.5679 19.1548 50.6406 16.8555 50.5449 14.5678C50.3307 9.44901 46.3137 5.65011 41.2102 5.64246C36.0953 5.63481 32.0554 9.42223 31.8297 14.5219C31.7302 16.8096 31.8029 19.1089 31.7761 21.4004C31.7685 22.0814 31.6996 22.7586 31.6499 23.516H26.3857C26.2901 23.1717 26.16 22.9307 26.1638 22.6935C26.2136 19.4493 26.0567 16.1822 26.3896 12.9648C27.1585 5.59272 33.7808 -0.0654581 41.2562 -0.000421536C48.7354 0.0646151 55.2352 5.62333 55.9621 12.9189C56.3026 16.3658 56.0195 19.874 56.0195 23.5466V23.5505Z" fill="#3FD6C5"/>
<path d="M75.7409 31.8259C73.4799 35.6669 70.0903 36.4971 65.9242 35.5024V31.7379C67.0183 31.6997 68.1277 31.6576 69.241 31.6193C71.1386 31.5505 72.9978 29.565 72.9481 27.6636C72.8678 24.7408 74.9183 22.5333 77.6766 22.5678C80.3584 22.6022 82.5238 24.9053 82.3593 27.5565C82.191 30.2995 79.8458 32.2429 76.9727 32.0096C76.6628 31.9828 76.3568 31.9177 75.7447 31.8221L75.7409 31.8259Z" fill="#3FD6C5"/>
<path d="M6.61843 59.635C8.81055 56.058 12.158 54.9217 16.4428 56.0427V59.9525C15.1994 59.9525 14.0709 59.9181 12.9423 59.9602C11.2972 60.0214 9.21224 62.1255 9.41118 63.7055C9.72489 66.2151 7.91151 68.9658 4.67499 69.0002C2.01231 69.0308 -0.168328 66.6513 2.43541e-06 64.0001C0.183635 61.1117 2.61294 59.2715 5.77678 59.6311C5.96042 59.6503 6.14787 59.6311 6.61078 59.6311L6.61843 59.635Z" fill="#3FD6C5"/>
<path d="M16.4734 31.6229V35.4677C12.269 36.6001 8.88323 35.6169 6.77528 32.1317C5.35213 31.9787 4.25033 32.0208 3.25183 31.7185C0.921988 31.0146 -0.397872 28.5815 0.145374 26.2937C0.723052 23.8568 2.88839 22.3954 5.46307 22.7014C7.74318 22.973 9.54507 24.9318 9.36527 27.3343C9.2658 28.6695 9.77844 29.4346 10.5933 30.3183C11.4923 31.2901 12.4488 31.7683 13.7725 31.6344C14.6332 31.5464 15.5131 31.6191 16.4772 31.6191L16.4734 31.6229Z" fill="#3FD6C5"/>
<path d="M72.9787 62.3742C72.0911 61.6473 71.1959 60.4881 70.0329 60.0749C68.8584 59.6579 67.4238 59.9831 65.9471 59.9831V56.0427C70.1018 54.9294 73.4607 55.9623 75.6911 59.5967C80.3738 59.107 82.2369 61.5019 82.321 64.2564C82.4014 66.854 80.1786 68.9696 77.5657 68.9352C74.4822 68.8931 72.9558 66.7966 72.9787 62.3742Z" fill="#3FD6C5"/>
<path d="M10.689 47.7139C8.01481 50.8319 5.13789 51.2871 2.91517 49.1868C0.983202 47.3582 0.987028 44.2211 2.92282 42.3771C5.12259 40.2806 8.03776 40.7512 10.5933 43.7429H19.5263V47.7178H10.6928L10.689 47.7139Z" fill="#3FD6C5"/>
<path d="M71.6742 47.7373H62.8139V43.8696H71.6359C74.4172 40.7172 77.2979 40.2658 79.513 42.4388C81.3646 44.256 81.3646 47.2897 79.5206 49.1146C77.3094 51.299 74.421 50.8514 71.6742 47.7373Z" fill="#3FD6C5"/>
<path d="M38.6279 44.9475C40.5101 42.9735 41.9065 41.5006 43.3105 40.0353C43.6625 39.6681 44.0145 39.2855 44.42 38.9909C45.4491 38.2411 46.5203 38.3176 47.3581 39.1478C48.1462 39.9282 48.261 41.1448 47.5265 42.0974C46.987 42.7975 46.3214 43.4019 45.6939 44.0332C44.0795 45.6553 42.4765 47.2965 40.8277 48.8803C39.4007 50.2537 38.3333 50.227 36.8796 48.8382C35.9117 47.9163 34.9553 46.9828 34.0562 45.9958C32.9965 44.8289 32.9965 43.5129 33.9682 42.6177C34.9208 41.7416 36.0877 41.7531 37.2009 42.8166C37.7365 43.3293 38.0541 44.0676 38.6279 44.9399V44.9475Z" fill="#3FD6C5"/>
</g>
<defs>
<clipPath id="clip0_4378_4731">
<rect width="82.3669" height="69" fill="white"/>
</clipPath>
</defs>
</svg>
