<svg width="67" height="67" viewBox="0 0 67 67" fill="none" xmlns="http://www.w3.org/2000/svg">
<g clip-path="url(#clip0_4378_4691)">
<path d="M61.4047 0.124392C62.3983 0.124392 63.3961 0.0857875 64.3854 0.132971C66.3468 0.223047 66.7707 0.579065 66.9078 2.51357C67.199 6.58419 66.7579 10.6119 65.8585 14.571C63.2205 26.2081 57.3834 35.8849 48.0347 43.3484C47.0497 44.1376 46.6386 44.9912 46.5315 46.2051C46.3731 47.9681 46.1975 49.761 45.7179 51.451C43.4653 59.3992 37.9108 63.9117 30.1809 65.9963C28.3437 66.4896 26.4251 66.6912 24.5322 66.9657C23.6201 67.0987 22.8064 66.8198 22.4638 65.859C22.1383 64.9411 22.5237 64.2291 23.2175 63.5985C24.3224 62.5991 25.453 61.6126 26.4337 60.493C27.2174 59.5965 27.9197 58.5714 28.4379 57.499C29.7098 54.8611 29.3715 53.2483 27.303 51.1722C23.4402 47.2946 19.5303 43.4642 15.7231 39.5309C14.0529 37.8065 12.2243 37.5363 10.1044 38.3341C7.63342 39.2649 5.80479 41.045 4.10034 42.9752C3.31236 43.8674 2.66142 45.1414 1.18395 44.5537C-0.400584 43.9232 -0.00659232 42.5291 0.160426 41.2509C0.721436 36.8929 1.94624 32.7665 4.45579 29.1163C7.87752 24.1406 12.6697 21.2796 18.6309 20.7091C21.3418 20.4474 23.2047 19.5124 25.0119 17.3934C33.1358 7.88387 43.5038 2.30768 55.8974 0.579065C57.7218 0.325992 59.559 0.193022 61.3919 0C61.3919 0.0428937 61.4004 0.0814981 61.4047 0.124392ZM30.9132 49.0318C43.7265 43.9489 53.8289 35.6876 59.3834 22.7766C54.2615 17.6379 49.3623 12.7223 44.3003 7.63937C31.2472 13.177 23.119 23.3985 18.0656 36.1637C22.4338 40.5432 26.5836 44.6996 30.9089 49.0318H30.9132ZM48.8184 6.01799C52.951 10.1015 56.998 14.1035 61.0578 18.114C62.4582 13.6016 63.3276 8.86184 63.2376 3.98054C59.6703 3.49584 52.8525 4.49097 48.8184 6.01799ZM30.3822 61.99C36.3177 60.5316 42.4075 55.1871 42.5916 47.4919C39.6067 48.9589 36.6389 50.4516 33.6369 51.8671C32.8146 52.2531 32.7847 52.8279 32.7504 53.5828C32.6904 54.9898 32.6904 56.4439 32.3093 57.7779C31.911 59.1848 31.0973 60.4716 30.3822 61.99ZM19.4746 24.4151C12.4684 24.8912 5.38082 31.0122 5.34227 36.7771C8.12163 34.6624 11.205 33.8517 14.5026 34.3622C16.2156 31.0722 17.8472 27.9367 19.466 24.7969C19.5174 24.6939 19.4746 24.5438 19.4746 24.4151Z" fill="#3FD6C5"/>
<path d="M4.95393 64.3235C3.31801 64.2849 2.41868 62.8308 3.0268 61.7156C3.29232 61.2309 3.72485 60.8277 4.12312 60.4287C7.96883 56.5597 11.8231 52.6993 15.6816 48.8431C17.1206 47.4062 18.0199 47.196 18.9321 48.0196C19.9128 48.9032 19.7243 49.9369 18.2426 51.4253C14.3969 55.2944 10.5469 59.1591 6.67122 62.9981C6.09308 63.5728 5.37362 64.0018 4.94965 64.3192L4.95393 64.3235Z" fill="#3FD6C5"/>
<path d="M5.92801 52.1844C4.35205 52.1586 3.47841 50.7818 4.0437 49.6193C4.19359 49.3105 4.43341 49.0317 4.6818 48.7829C6.66889 46.7798 8.64741 44.7595 10.673 42.7992C11.718 41.7912 12.6559 41.7526 13.4524 42.5247C14.2489 43.3011 14.2404 44.2791 13.2511 45.3042C11.2426 47.3889 9.18701 49.4263 7.11855 51.4466C6.73741 51.8198 6.19353 52.0257 5.92801 52.1801V52.1844Z" fill="#3FD6C5"/>
<path d="M22.986 53.1025C24.6433 53.1497 25.4998 54.5266 24.8917 55.6976C24.669 56.1223 24.2879 56.474 23.941 56.8214C22.0524 58.7259 20.1767 60.6433 18.2452 62.5048C17.2303 63.4828 16.2496 63.5 15.4573 62.7107C14.6522 61.9086 14.6865 61.0079 15.7186 59.9355C17.68 57.9023 19.6842 55.9164 21.7055 53.9433C22.1338 53.5272 22.7205 53.2698 22.9817 53.1025H22.986Z" fill="#3FD6C5"/>
<path d="M50.6497 25.2596C50.624 30.0208 46.5641 34.0571 41.802 34.0571C37.0612 34.0571 33.0057 29.9608 33.0314 25.2039C33.0571 20.4341 37.1255 16.3806 41.8662 16.4064C46.6241 16.4321 50.6753 20.5156 50.6497 25.2596ZM46.744 25.1267C46.7183 22.3643 44.4957 20.1295 41.7677 20.1167C39.0954 20.1081 36.6287 22.6774 36.7186 25.3755C36.8128 28.1807 38.9969 30.1924 41.8876 30.1409C44.7698 30.0895 46.774 28.022 46.744 25.1267Z" fill="#3FD6C5"/>
</g>
<defs>
<clipPath id="clip0_4378_4691">
<rect width="67" height="67" fill="white"/>
</clipPath>
</defs>
</svg>
