<svg width="91" height="67" viewBox="0 0 91 67" fill="none" xmlns="http://www.w3.org/2000/svg">
<g clip-path="url(#clip0_4378_4659)">
<path d="M0 55.0977C0.733737 53.564 2.17747 53.8835 3.55471 53.8386C3.55471 53.4362 3.55471 53.093 3.55471 52.7475C3.55471 38.1944 3.54758 23.639 3.55945 9.08591C3.56183 4.37847 6.6535 0.807058 11.3171 0.0828359C11.8395 0 12.3785 0.00473348 12.9104 0.00473348C34.6519 0 56.3909 0 78.1323 0C83.646 0 87.4477 3.79625 87.45 9.29655C87.4548 23.7621 87.45 38.2276 87.45 52.6931C87.45 53.0433 87.45 53.3936 87.45 53.8551C87.9962 53.8551 88.4901 53.848 88.9816 53.8551C90.3185 53.8764 91.0024 54.5675 91 55.8858C90.9953 61.1068 86.7852 65.9918 81.5896 66.7775C80.8322 66.8911 80.0581 66.9527 79.2911 66.9527C70.8804 66.9645 62.4674 66.9598 54.0567 66.9598C53.8192 66.9598 53.5818 66.9716 53.3467 66.9456C52.3969 66.8367 51.7083 66.0651 51.7296 65.1492C51.751 64.2664 52.4254 63.5375 53.3372 63.4357C53.6293 63.4026 53.9285 63.4191 54.2253 63.4191C62.636 63.4191 71.049 63.4262 79.4597 63.4144C82.9194 63.4097 85.8069 61.4287 86.9466 58.3164C87.0464 58.0466 87.1129 57.765 87.2126 57.4313H3.78504C3.91326 57.8455 4.00112 58.2312 4.15072 58.5933C5.36412 61.5305 8.19458 63.4073 11.481 63.412C19.9225 63.4239 28.364 63.4168 36.8056 63.4168C37.1024 63.4168 37.4016 63.4002 37.6937 63.4357C38.6007 63.5469 39.2704 64.2925 39.2751 65.1752C39.2822 66.0557 38.6221 66.8154 37.7174 66.9361C37.4253 66.9763 37.1261 66.9574 36.8293 66.9574C28.5659 66.9574 20.3001 66.8556 12.039 66.9905C5.35224 67.0994 0.731362 62.2381 0.123477 57.2632C0.113979 57.1828 0.042742 57.1118 0 57.036C0 56.3876 0 55.7367 0 55.0882L0 55.0977ZM83.8953 53.8338V52.9676C83.8953 38.3838 83.8953 23.7999 83.8953 9.21608C83.8953 5.75591 81.649 3.54537 78.1465 3.54537C56.3766 3.54537 34.6067 3.54537 12.8345 3.54537C9.34387 3.54537 7.11416 5.76538 7.11179 9.24211C7.10941 23.7976 7.11179 38.3506 7.11179 52.9061V53.7865H58.9174C58.1101 52.3972 57.3645 51.1097 56.5785 49.7536C55.8519 50.3571 55.1917 50.8991 54.5411 51.4482C53.9024 51.9901 53.1971 52.2126 52.4111 51.8268C51.6252 51.4387 51.3782 50.7452 51.4138 49.9098C51.6275 44.5704 51.8294 39.2311 52.0526 33.8941C52.1191 32.3226 53.3918 31.5557 54.7714 32.2752C59.5657 34.7792 64.3456 37.3116 69.1327 39.8322C69.8499 40.2109 70.2701 40.7765 70.206 41.6096C70.1419 42.4427 69.6314 42.9326 68.8763 43.2095C68.0476 43.5149 67.2188 43.8225 66.326 44.1539C67.5109 46.2011 68.6626 48.1892 69.8142 50.1749C70.8472 51.957 70.7284 52.5037 69.052 53.6776C69.0259 53.6966 69.0425 53.777 69.0378 53.8362H83.9025L83.8953 53.8338ZM64.0559 41.16C61.121 39.6168 58.3428 38.1542 55.4838 36.6513C55.3603 39.9198 55.2416 43.0249 55.1181 46.2768C55.4173 46.0615 55.5835 45.9502 55.7403 45.8295C56.9038 44.942 57.9605 45.1266 58.7156 46.3597C59.0219 46.8638 59.3068 47.3797 59.6037 47.891C60.6223 49.6447 61.641 51.3961 62.6953 53.2066C63.923 52.4966 65.0794 51.8292 66.2524 51.15C66.0458 50.7784 65.9057 50.5204 65.7585 50.2648C64.6353 48.3241 63.505 46.3857 62.389 44.4426C61.5722 43.0202 61.9188 42.0333 63.4219 41.4321C63.5858 41.3659 63.7472 41.2949 64.0583 41.16H64.0559Z" fill="#3FD6C5"/>
<path d="M45.5 66.9599C44.5193 66.9599 43.7072 66.1292 43.731 65.1493C43.7547 64.205 44.5526 63.4287 45.5 63.4287C46.4807 63.4287 47.2976 64.2642 47.2714 65.2369C47.2453 66.1789 46.4451 66.9575 45.5 66.9575V66.9599Z" fill="#3FD6C5"/>
<path d="M52.8392 19.883C52.2479 22.103 51.6709 24.3254 51.0606 26.5383C50.7211 27.7642 49.8449 28.3559 48.698 28.1808C47.684 28.0246 47.1996 27.3311 46.9479 26.4105C46.416 24.4484 45.8794 22.4864 45.3403 20.5268C45.281 20.3114 45.1907 20.1031 45.0459 19.6984C44.6422 22.1077 44.2789 24.3088 43.9061 26.5099C43.7019 27.7145 42.9159 28.3417 41.8284 28.1879C40.8026 28.0435 40.1994 27.1134 40.3965 25.9324C41.1398 21.4545 41.8901 16.9767 42.6452 12.4988C42.8518 11.2775 43.6093 10.5533 44.6731 10.5226C45.6823 10.4918 46.4445 11.1261 46.7769 12.3189C47.4988 14.901 48.2041 17.4879 48.9663 20.2546C49.0993 19.9185 49.1919 19.7363 49.2441 19.5446C49.8852 17.1542 50.5121 14.759 51.158 12.3686C51.4928 11.1261 52.2717 10.4729 53.3117 10.5249C54.3684 10.577 55.0855 11.2823 55.3087 12.5343C56.1089 17.0335 56.9044 21.5326 57.6928 26.0318C57.878 27.085 57.2843 27.9962 56.3298 28.1761C55.2826 28.3749 54.423 27.7903 54.2117 26.6732C53.8412 24.7041 53.5064 22.7278 53.1526 20.754C53.1004 20.4676 53.0386 20.1836 52.9793 19.8972C52.9342 19.8925 52.8867 19.8901 52.8416 19.8854L52.8392 19.883Z" fill="#3FD6C5"/>
<path d="M69.8305 28.2092C64.9412 28.1879 60.9686 24.2118 60.9805 19.3529C60.99 14.5058 65.0054 10.5107 69.8661 10.5107C74.7814 10.5107 78.7659 14.5129 78.7445 19.4333C78.7255 24.3017 74.7339 28.2329 69.8281 28.2092H69.8305ZM75.1922 19.36C75.1874 16.4442 72.8058 14.0632 69.8827 14.0538C66.9786 14.0443 64.5542 16.4418 64.5352 19.3387C64.5162 22.2853 66.9311 24.6828 69.9041 24.6662C72.8461 24.6496 75.1993 22.29 75.1922 19.36Z" fill="#3FD6C5"/>
<path d="M12.2543 19.3272C12.2543 17.0835 12.2472 14.8398 12.2543 12.5962C12.259 11.1974 12.9073 10.504 14.313 10.5134C15.6428 10.5229 17.0129 10.4495 18.2904 10.743C21.7691 11.5382 23.3743 14.0872 23.9371 17.377C24.3313 19.6916 24.1271 21.9826 23.0181 24.1032C21.6457 26.7279 19.5014 28.1788 16.4691 28.193C15.7283 28.1977 14.9874 28.2214 14.2465 28.2095C12.9524 28.1906 12.278 27.5421 12.2638 26.2357C12.2377 23.9328 12.2567 21.63 12.2567 19.3272H12.2543ZM15.8399 24.5955C17.3905 24.8038 18.5991 24.3707 19.4848 23.1565C20.8573 21.2702 20.9119 17.6042 19.6035 15.6729C18.7392 14.3972 17.248 13.8056 15.8399 14.1913V24.5979V24.5955Z" fill="#3FD6C5"/>
<path d="M31.4324 14.0396V17.6039C32.4107 17.6039 33.3534 17.5589 34.2866 17.6181C35.132 17.6725 35.7304 18.1293 35.918 18.9955C36.0937 19.8073 35.747 20.5931 35.0109 20.9197C34.6737 21.0688 34.27 21.1067 33.8948 21.1185C33.1017 21.1469 32.3086 21.128 31.4491 21.128V24.6733C32.2018 24.6733 32.9616 24.6615 33.7191 24.6781C34.1608 24.6875 34.6143 24.6852 35.0394 24.7869C35.9132 24.9952 36.4119 25.7597 36.3216 26.6496C36.2362 27.4874 35.6211 28.1643 34.7592 28.1856C32.983 28.2305 31.2045 28.2305 29.4283 28.1856C28.5568 28.1643 27.9751 27.5371 27.8635 26.659C27.8302 26.3963 27.8302 26.1289 27.8302 25.8638C27.8302 21.5232 27.8255 17.185 27.8302 12.8444C27.8302 11.093 28.4239 10.506 30.1787 10.5013C31.6295 10.4966 33.0827 10.4729 34.5312 10.5202C35.5167 10.551 36.1483 11.119 36.2979 11.9616C36.4427 12.7734 36.0818 13.552 35.3362 13.8573C34.9943 13.997 34.5906 14.0254 34.213 14.0348C33.3036 14.0585 32.3918 14.042 31.4324 14.042V14.0396Z" fill="#3FD6C5"/>
</g>
<defs>
<clipPath id="clip0_4378_4659">
<rect width="91" height="67" fill="white"/>
</clipPath>
</defs>
</svg>
