<svg width="67" height="67" viewBox="0 0 67 67" fill="none" xmlns="http://www.w3.org/2000/svg">
<g clip-path="url(#clip0_4378_4666)">
<path d="M46.8978 6.7002C53.0626 6.7002 59.2274 6.7002 65.3922 6.7002C66.676 6.7002 66.9991 7.02325 66.9991 8.30289C66.9991 15.4213 66.9991 22.5398 66.9991 29.6582C66.9991 30.9392 66.6746 31.2651 65.3936 31.2651C53.064 31.2651 40.7345 31.2651 28.4063 31.2651C27.1266 31.2651 26.8008 30.9392 26.8008 29.6596C26.8008 22.5188 26.8008 15.3766 26.8008 8.23576C26.8008 7.04982 27.1504 6.7002 28.335 6.7002C34.5235 6.7002 40.7107 6.7002 46.8992 6.7002H46.8978ZM29.0902 8.96439V23.6628C29.3825 23.4949 29.6035 23.3733 29.8202 23.2446C32.5907 21.5846 35.3738 19.9441 38.1206 18.2477C38.8436 17.8016 39.4086 17.8324 40.0967 18.2869C43.0281 20.2168 45.9888 22.1006 48.9229 24.025C49.3425 24.3005 49.6572 24.3396 50.1131 24.0963C52.4515 22.853 54.8192 21.6685 57.1534 20.4182C57.8303 20.056 58.3883 20.077 59.0372 20.4644C60.7336 21.4741 62.458 22.4377 64.174 23.4152C64.3461 23.5131 64.5293 23.5886 64.7293 23.6851V8.96299H29.0902V8.96439ZM64.7656 29.0093C64.7656 28.2443 64.7391 27.5478 64.7754 26.8556C64.7964 26.4444 64.6314 26.2374 64.2901 26.0458C62.3671 24.9648 60.4511 23.8711 58.5463 22.7593C58.1869 22.5496 57.9114 22.537 57.5338 22.737C55.1744 23.9844 52.7843 25.1774 50.4348 26.4416C49.6823 26.8472 49.0894 26.8094 48.3803 26.3409C45.4545 24.4082 42.5022 22.5132 39.5443 20.6294C39.3247 20.4895 38.8996 20.4224 38.6996 20.5399C35.5766 22.3747 32.4733 24.2446 29.3713 26.1158C29.2314 26.1997 29.058 26.3731 29.0538 26.5101C29.0245 27.3367 29.0385 28.1646 29.0385 29.0065H64.7684L64.7656 29.0093Z" fill="#3FD6C5"/>
<path d="M58.0673 58.0975H60.1568C60.1568 59.9547 60.3512 61.8273 60.105 63.6398C59.8295 65.6788 57.8701 66.9962 55.6535 66.9976C48.6062 67.0032 41.5589 67.0004 34.5131 67.0004C24.652 67.0004 14.7908 67.0004 4.92971 67.0004C1.80956 66.9976 0.00124315 65.1838 0.00124315 62.0567C0.00124315 61.2428 -0.00155394 60.4288 0.00124315 59.6149C0.00404023 58.4164 0.343886 58.0681 1.52146 58.0667C3.21649 58.0639 4.91153 58.0667 6.68068 58.0667V35.7744H8.89598V58.0667C9.21484 58.0667 9.45959 58.0667 9.70433 58.0667C23.7751 58.0667 37.8458 58.0667 51.9165 58.0667C53.2969 58.0667 53.6004 58.366 53.6004 59.7338C53.6004 60.6414 53.5906 61.5476 53.6032 62.4553C53.6214 63.7657 54.5724 64.753 55.8101 64.7656C57.0786 64.7782 58.0464 63.7825 58.0659 62.4329C58.0771 61.7127 58.0673 60.991 58.0673 60.2694C58.0673 59.5729 58.0673 58.8751 58.0673 58.0989V58.0975ZM2.23472 60.3253C2.23472 60.9784 2.23472 61.5588 2.23472 62.1378C2.23751 63.9307 3.08083 64.767 4.89335 64.767C20.3333 64.767 35.7718 64.767 51.2117 64.7656C51.4313 64.7656 51.6494 64.7474 51.9543 64.7334C51.1096 63.3112 51.469 61.7854 51.3278 60.3253H2.23472Z" fill="#3FD6C5"/>
<path d="M26.2501 35.733C30.7632 35.733 35.2763 35.733 39.7894 35.733C40.9725 35.733 41.3166 36.0799 41.3166 37.2756C41.318 41.4628 41.318 45.6499 41.3166 49.8371C41.3166 51.0174 40.9641 51.3642 39.7726 51.3642C30.7464 51.3642 21.7216 51.3642 12.6954 51.3642C11.515 51.3642 11.1696 51.0146 11.1696 49.8203C11.1682 45.6331 11.1668 41.446 11.1696 37.2588C11.1696 36.0757 11.5164 35.733 12.7136 35.733C17.2267 35.7316 21.7398 35.733 26.2529 35.733H26.2501ZM39.0509 38.0126H13.4562V49.0958H39.0509V38.0126Z" fill="#3FD6C5"/>
<path d="M12.2834 33.4984C8.70173 33.4984 5.11867 33.4984 1.537 33.4984C0.351034 33.4984 0.00139854 33.1487 0 31.9642C0 27.7771 0 23.5899 0 19.4028C0 18.214 0.34544 17.8672 1.5342 17.8672C8.69894 17.8672 15.8637 17.8672 23.0284 17.8672C24.2186 17.8672 24.564 18.2126 24.5654 19.4014C24.5668 23.6123 24.5682 27.8218 24.5654 32.0327C24.5654 33.1236 24.1892 33.4998 23.0997 33.4998C19.4943 33.5026 15.8888 33.4998 12.2834 33.4998V33.4984ZM22.3026 20.1496H2.28941V31.2286H22.3026V20.1496Z" fill="#3FD6C5"/>
<path d="M55.2725 40.1989C58.6681 40.1989 62.0652 40.1989 65.4609 40.1989C66.6496 40.1989 66.9979 40.5458 66.9979 41.7317C66.9993 45.9189 67.0007 50.106 66.9979 54.2932C66.9979 55.4805 66.6482 55.8301 65.4623 55.8301C58.6695 55.8315 51.8768 55.8301 45.0841 55.8301C43.8953 55.8301 43.5485 55.4833 43.5485 54.2946C43.5471 50.0836 43.5457 45.8741 43.5485 41.6632C43.5485 40.5695 43.9205 40.1975 45.0128 40.1975C48.4322 40.1947 51.8516 40.1975 55.2711 40.1975L55.2725 40.1989ZM64.7336 42.4813H45.8379V53.5631H64.7336V42.4813Z" fill="#3FD6C5"/>
<path d="M60.2709 4.44336H58.1465C57.6571 2.68682 57.0501 2.2337 55.2124 2.2337C40.6997 2.2337 26.1884 2.2337 11.6758 2.2337C9.7234 2.2337 8.93602 3.02666 8.93602 4.98738C8.93602 8.49905 8.93602 12.0093 8.93602 15.5769H6.73471C6.72492 15.3713 6.70534 15.1476 6.70534 14.9252C6.70394 11.5296 6.70115 8.13403 6.70534 4.73844C6.70674 1.89386 8.58358 0.00307433 11.4128 0.00307433C26.1577 0.000277306 40.9025 0.000277306 55.6474 0.00307433C58.2794 0.00307433 60.2765 1.90505 60.2709 4.44336Z" fill="#3FD6C5"/>
<path d="M11.1992 11.1197V8.96875H24.5106V11.1197H11.1992Z" fill="#3FD6C5"/>
<path d="M60.2449 37.9406H58.1094V33.5381H60.2449V37.9406Z" fill="#3FD6C5"/>
<path d="M13.3661 4.50586V6.64838H11.2109V4.50586H13.3661Z" fill="#3FD6C5"/>
<path d="M15.6914 4.48242H17.8144V6.65431H15.6914V4.48242Z" fill="#3FD6C5"/>
<path d="M22.3039 4.50293V6.65105H20.1445V4.50293H22.3039Z" fill="#3FD6C5"/>
<path d="M49.1367 15.0652C49.1409 12.9129 50.8961 11.1648 53.0512 11.169C55.2036 11.1731 56.9518 12.9297 56.9476 15.0834C56.9434 17.2357 55.1868 18.9852 53.0331 18.9811C50.8835 18.9769 49.1325 17.2175 49.1367 15.0652ZM54.7127 15.0582C54.7043 14.1422 53.9253 13.3856 53.0093 13.4038C52.1198 13.422 51.3828 14.1646 51.373 15.054C51.3632 15.9701 52.1254 16.7434 53.0415 16.7434C53.9575 16.7434 54.7225 15.9728 54.7127 15.0568V15.0582Z" fill="#3FD6C5"/>
<path d="M15.668 46.8507V44.7012H28.9793V46.8507H15.668Z" fill="#3FD6C5"/>
<path d="M22.3633 42.3835V40.2354H32.3251V42.3835H22.3633Z" fill="#3FD6C5"/>
<path d="M36.8205 44.7148V46.863H31.3242V44.7148H36.8205Z" fill="#3FD6C5"/>
<path d="M15.6641 42.3844V40.2363H20.0429V42.3844H15.6641Z" fill="#3FD6C5"/>
<path d="M36.8186 40.248V42.3976H34.6719V40.248H36.8186Z" fill="#3FD6C5"/>
<path d="M12.344 21.9775C13.0488 22.2125 13.7005 22.4307 14.4544 22.6824C13.7159 24.9074 12.9887 27.0947 12.2293 29.3813C11.5258 29.1477 10.8587 28.9268 10.1133 28.6792C10.8587 26.4374 11.5887 24.2473 12.344 21.9775Z" fill="#3FD6C5"/>
<path d="M8.57361 24.3653C8.12049 24.7387 7.63939 25.1372 7.01564 25.6519C7.65757 26.14 8.16944 26.5288 8.72466 26.9511C8.01839 27.5874 7.49394 28.0601 6.9555 28.544C6.26882 27.8769 5.46605 27.1455 4.72482 26.3568C4.32904 25.9344 4.35561 25.3848 4.75559 24.9652C5.48843 24.196 6.26742 23.4716 7.05759 22.6982C7.5359 23.2227 8.00021 23.7345 8.57501 24.3653H8.57361Z" fill="#3FD6C5"/>
<path d="M15.8906 24.3275C16.5298 23.7486 17.0416 23.2857 17.5199 22.8535C18.2737 23.5556 19.131 24.2884 19.9016 25.1023C20.2751 25.4967 20.166 26.0379 19.7926 26.4337C19.0779 27.1889 18.3339 27.9161 17.5759 28.6797C17.0486 28.1287 16.5605 27.6183 15.955 26.9861C16.4221 26.6071 16.9214 26.2002 17.5437 25.6953C16.9172 25.1778 16.4221 24.7667 15.8906 24.3289V24.3275Z" fill="#3FD6C5"/>
<path d="M62.5009 44.7129V46.8638H52.5391V44.7129H62.5009Z" fill="#3FD6C5"/>
<path d="M52.5156 51.3175V49.168H62.4774V51.3175H52.5156Z" fill="#3FD6C5"/>
<path d="M48.0586 44.7012H50.1984V46.8535H48.0586V44.7012Z" fill="#3FD6C5"/>
<path d="M48.0742 49.1465H50.1958V51.3184H48.0742V49.1465Z" fill="#3FD6C5"/>
</g>
<defs>
<clipPath id="clip0_4378_4666">
<rect width="67" height="67" fill="white"/>
</clipPath>
</defs>
</svg>
